<?xml version="1.0" encoding="UTF-8" standalone="no"?>
<!-- Created with Inkscape (http://www.inkscape.org/) -->

<svg
   xmlns:dc="http://purl.org/dc/elements/1.1/"
   xmlns:cc="http://creativecommons.org/ns#"
   xmlns:rdf="http://www.w3.org/1999/02/22-rdf-syntax-ns#"
   xmlns:svg="http://www.w3.org/2000/svg"
   xmlns="http://www.w3.org/2000/svg"
   xmlns:sodipodi="http://sodipodi.sourceforge.net/DTD/sodipodi-0.dtd"
   xmlns:inkscape="http://www.inkscape.org/namespaces/inkscape"
   width="456"
   height="47.63715"
   viewBox="0 0 120.65 12.603996"
   version="1.1"
   id="svg8"
   inkscape:version="0.92.1 r15371"
   sodipodi:docname="logo2.svg">
  <defs
     id="defs2" />
  <sodipodi:namedview
     id="base"
     pagecolor="#ffffff"
     bordercolor="#666666"
     borderopacity="1.0"
     inkscape:pageopacity="0.0"
     inkscape:pageshadow="2"
     inkscape:zoom="1.4"
     inkscape:cx="352.70569"
     inkscape:cy="-136.79571"
     inkscape:document-units="mm"
     inkscape:current-layer="layer1"
     showgrid="false"
     inkscape:showpageshadow="false"
     showborder="false"
     inkscape:window-width="1920"
     inkscape:window-height="1017"
     inkscape:window-x="-8"
     inkscape:window-y="-8"
     inkscape:window-maximized="1"
     units="px" />
  <metadata
     id="metadata5">
    <rdf:RDF>
      <cc:Work
         rdf:about="">
        <dc:format>image/svg+xml</dc:format>
        <dc:type
           rdf:resource="http://purl.org/dc/dcmitype/StillImage" />
        <dc:title></dc:title>
      </cc:Work>
    </rdf:RDF>
  </metadata>
  <g
     inkscape:label="Layer 1"
     inkscape:groupmode="layer"
     id="layer1"
     transform="translate(-14.115047,-19.506417)">
    <path
       style="font-style:normal;font-variant:normal;font-weight:normal;font-stretch:normal;font-size:12.69999981px;line-height:1.25;font-family:'Permanent Marker';-inkscape-font-specification:'Permanent Marker';letter-spacing:0px;word-spacing:0px;fill:#000000;fill-opacity:1;stroke:none;stroke-width:0.99999994"
       d="m 45.796875,0 -0.65625,0.28125 C 44.609375,0.5 44.21875,0.65625 43.96875,0.75 43.75,0.84375 43.546875,0.921875 43.359375,0.984375 43.171875,1.015625 42.96875,1.03125 42.75,1.03125 c -0.21875,0 -0.546875,0.015625 -0.984375,0.046875 V 2.0625 L 41.0625,2.109375 41.25,2.953125 c 0.03125,0.15625 -0.04687,0.40625 -0.234375,0.75 -0.0625,0.15625 -0.125,0.328125 -0.1875,0.515625 -0.0625,0.1875 -0.09375,0.546875 -0.09375,1.078125 0.125,0.25 0.21875,0.515625 0.28125,0.796875 0.09375,0.25 0.203125,0.609375 0.328125,1.078125 l 0.421875,0.28125 c 0.15625,0.125 0.296875,0.21875 0.421875,0.28125 0.15625,0.03125 0.40625,0.125 0.75,0.28125 L 43.5,8.25 43.875,7.875 c 0.0625,0 0.15625,0.015625 0.28125,0.046875 h 0.375 l 0.65625,0.09375 c 0.21875,0 0.453125,-0.046875 0.703125,-0.140625 l 0.46875,-0.328125 C 46.453125,7.359375 46.5,7.25 46.5,7.21875 L 46.546875,7.125 C 46.578125,7.09375 46.625,7.0625 46.6875,7.03125 46.75,7 46.875,6.90625 47.0625,6.75 c 0.53125,-0.375 1,-0.734375 1.40625,-1.078125 C 48.5625,5.453125 48.640625,5.25 48.703125,5.0625 48.796875,4.875 48.90625,4.53125 49.03125,4.03125 48.96875,3.65625 48.765625,3.3125 48.421875,3 48.078125,2.6875 47.734375,2.34375 47.390625,1.96875 47.171875,1.75 46.90625,1.5 46.59375,1.21875 46.3125,0.9375 46.140625,0.734375 46.078125,0.609375 Z M 55.5,0.421875 c -0.375,0.125 -0.890625,0.35937501 -1.546875,0.703125 -0.1875,0.34375 -0.265625,0.734375 -0.234375,1.171875 0.03125,0.4375 0.03125,0.90625 0,1.40625 -0.03125,0.28125 -0.04687,0.625 -0.04687,1.03125 0.03125,0.40625 0.01563,0.6875 -0.04687,0.84375 L 53.4375,6.1875 54.09375,6.421875 c 0.5,0.21875 0.859375,0.390625 1.078125,0.515625 0.25,0.09375 0.4375,0.1875 0.5625,0.28125 0.15625,0.09375 0.3125,0.21875 0.46875,0.375 0.15625,0.125 0.40625,0.328125 0.75,0.609375 L 57.65625,7.546875 58.125,7.96875 58.59375,7.265625 c 0.125,-0.125 0.359375,-0.25 0.703125,-0.375 0.15625,-0.0625 0.328125,-0.125 0.515625,-0.1875 C 60,6.609375 60.265625,6.390625 60.609375,6.046875 60.671875,5.765625 60.765625,5.5 60.890625,5.25 61.046875,5 61.234375,4.6875 61.453125,4.3125 L 61.40625,3.796875 c -0.0625,-0.1875 -0.125,-0.34375 -0.1875,-0.46875 C 61.1875,3.171875 61.09375,2.9375 60.9375,2.625 L 60.75,2.0625 60.1875,2.015625 c -0.125,-0.0625 -0.25,-0.21875 -0.375,-0.46875 L 59.34375,1.078125 C 59.21875,0.890625 59.046875,0.75 58.828125,0.65625 l -0.5625,-0.09375 c -0.1875,0.0625 -0.3125,0.109375 -0.375,0.140625 H 57.75 57.65625 c -0.0625,-0.03125 -0.203125,-0.0625 -0.421875,-0.09375 l -0.84375,-0.09375 C 56.109375,0.484375 55.8125,0.453125 55.5,0.421875 Z m -5.71875,9.75 c -0.46875,0.3125 -0.828125,0.59375 -1.078125,0.84375 -0.25,0.25 -0.515625,0.640625 -0.796875,1.171875 -0.4375,0.0625 -0.765625,0.09375 -0.984375,0.09375 -0.1875,0 -0.453125,0.01563 -0.796875,0.04687 -0.4375,0.59375 -0.8125,1.078125 -1.125,1.453125 -0.3125,0.375 -0.8125,0.71875 -1.5,1.03125 v 0.609375 c -0.3125,0.09375 -0.578125,0.21875 -0.796875,0.375 -0.21875,0.15625 -0.4375,0.328125 -0.65625,0.515625 -0.1875,0.1875 -0.40625,0.359375 -0.65625,0.515625 -0.21875,0.15625 -0.484375,0.265625 -0.796875,0.328125 -0.15625,0.28125 -0.34375,0.515625 -0.5625,0.703125 -0.1875,0.1875 -0.40625,0.375 -0.65625,0.5625 -0.21875,0.15625 -0.4375,0.328125 -0.65625,0.515625 -0.1875,0.1875 -0.34375,0.421875 -0.46875,0.703125 -0.1875,0.0625 -0.359375,0.171875 -0.515625,0.328125 l -0.375,0.46875 c -0.09375,0.15625 -0.21875,0.28125 -0.375,0.375 -0.125,0.09375 -0.296875,0.09375 -0.515625,0 -1,1.1875 -2.046875,2.421875 -3.140625,3.703125 -1.0625,1.28125 -2.015625,2.65625 -2.859375,4.125 -0.84375,1.46875 -1.484375,3.078125 -1.921875,4.828125 -0.4375,1.71875 -0.515625,3.640625 -0.234375,5.765625 0.40625,1.03125 0.921875,2 1.546875,2.90625 0.65625,0.90625 1.421875,1.6875 2.296875,2.34375 0.90625,0.65625 1.921875,1.140625 3.046875,1.453125 1.125,0.3125 2.375,0.375 3.75,0.1875 1.4375,0.3125 2.6875,0.390625 3.75,0.234375 1.0625,-0.15625 2.15625,-0.4375 3.28125,-0.84375 0.46875,0.0625 1,0.04687 1.59375,-0.04687 0.59375,-0.125 1.1875,-0.28125 1.78125,-0.46875 0.59375,-0.1875 1.171875,-0.390625 1.734375,-0.609375 0.5625,-0.25 1.046875,-0.5 1.453125,-0.75 0.53125,-0.125 1.046875,-0.234375 1.546875,-0.328125 0.5,-0.125 0.96875,-0.3125 1.40625,-0.5625 0.625,-0.53125 1.3125,-0.984375 2.0625,-1.359375 0.75,-0.40625 1.375,-0.921875 1.875,-1.546875 0.40625,-0.25 0.765625,-0.609375 1.078125,-1.078125 0.3125,-0.5 0.5625,-1.03125 0.75,-1.59375 0.1875,-0.5625 0.3125,-1.140625 0.375,-1.734375 0.0625,-0.625 0.0625,-1.203125 0,-1.734375 -0.0625,-0.40625 -0.171875,-0.8125 -0.328125,-1.21875 -0.15625,-0.40625 -0.328125,-0.8125 -0.515625,-1.21875 -0.15625,-0.40625 -0.296875,-0.8125 -0.421875,-1.21875 -0.09375,-0.4375 -0.109375,-0.875 -0.04687,-1.3125 -0.90625,-1.46875 -1.71875,-3 -2.4375,-4.59375 C 57.171875,22.515625 56.375,20.96875 55.5,19.5 55.625,19.3125 55.671875,19.078125 55.640625,18.796875 55.609375,18.578125 55.5,18.46875 55.3125,18.46875 55.125,18.4375 55.03125,18.296875 55.03125,18.046875 c 0.375,-0.15625 0.625,-0.4375 0.75,-0.84375 0.125,-0.4375 0.265625,-0.84375 0.421875,-1.21875 -0.0625,-0.21875 -0.140625,-0.40625 -0.234375,-0.5625 C 55.90625,15.265625 55.828125,15.125 55.734375,15 c -0.0625,-0.125 -0.125,-0.265625 -0.1875,-0.421875 -0.0625,-0.15625 -0.125,-0.359375 -0.1875,-0.609375 C 55.203125,13.9375 55.09375,13.95312 55.03125,14.01562 55,14.078125 54.90625,14.109375 54.75,14.109375 54.6875,13.765625 54.546875,13.5 54.328125,13.3125 c -0.21875,-0.1875 -0.4375,-0.359375 -0.65625,-0.515625 -0.21875,-0.1875 -0.421875,-0.375 -0.609375,-0.5625 -0.1875,-0.21875 -0.296875,-0.515625 -0.328125,-0.890625 -0.4375,-0.4375 -0.921875,-0.671875 -1.453125,-0.703125 -0.53125,-0.0625 -1.03125,-0.21875 -1.5,-0.46875 z m 251.90625,0 c -0.46875,0.3125 -0.82816,0.59375 -1.07812,0.84375 -0.25,0.25 -0.51563,0.640625 -0.79688,1.171875 -0.4375,0.0625 -0.76563,0.09375 -0.98438,0.09375 -0.18746,0 -0.45312,0.01563 -0.79687,0.04687 -0.4375,0.59375 -0.8125,1.078125 -1.125,1.453125 -0.3125,0.375 -0.8125,0.71875 -1.5,1.03125 v 0.609375 c -0.3125,0.09375 -0.57816,0.21875 -0.79687,0.375 -0.21875,0.15625 -0.43751,0.328125 -0.65626,0.515625 -0.18746,0.1875 -0.40628,0.359375 -0.65624,0.515625 -0.21875,0.15625 -0.48438,0.265625 -0.79688,0.328125 -0.15625,0.28125 -0.34375,0.515625 -0.5625,0.703125 -0.1875,0.1875 -0.40625,0.375 -0.65625,0.5625 -0.21875,0.15625 -0.4375,0.328125 -0.65625,0.515625 -0.1875,0.1875 -0.34375,0.421875 -0.46875,0.703125 -0.1875,0.0625 -0.35938,0.171875 -0.51563,0.328125 l -0.375,0.46875 c -0.0937,0.15625 -0.21875,0.28125 -0.375,0.375 -0.12496,0.09375 -0.29687,0.09375 -0.51562,0 -1,1.1875 -2.04691,2.421875 -3.14062,3.703125 -1.0625,1.28125 -2.01563,2.65625 -2.85938,4.125 -0.84375,1.46875 -1.48438,3.078125 -1.92188,4.828125 -0.43746,1.71875 -0.51562,3.640625 -0.23437,5.765625 0.40625,1.03125 0.92191,2 1.54687,2.90625 0.65625,0.90625 1.42188,1.6875 2.29688,2.34375 0.90625,0.65625 1.92188,1.140625 3.04688,1.453125 1.12496,0.3125 2.375,0.375 3.75,0.1875 1.43746,0.3125 2.6875,0.390625 3.75,0.234375 1.06246,-0.15625 2.15628,-0.4375 3.28124,-0.84375 0.46875,0.0625 1.00001,0.04687 1.59376,-0.04687 0.59371,-0.125 1.18753,-0.28125 1.78124,-0.46875 0.59375,-0.1875 1.17188,-0.390625 1.73438,-0.609375 0.5625,-0.25 1.04691,-0.5 1.45312,-0.75 0.53125,-0.125 1.04688,-0.234375 1.54688,-0.328125 0.5,-0.125 0.96875,-0.3125 1.40625,-0.5625 0.625,-0.53125 1.3125,-0.984375 2.0625,-1.359375 0.75,-0.40625 1.375,-0.921875 1.875,-1.546875 0.40625,-0.25 0.76563,-0.609375 1.07813,-1.078125 0.31246,-0.5 0.5625,-1.03125 0.75,-1.59375 0.18746,-0.5625 0.3125,-1.140625 0.375,-1.734375 0.0625,-0.625 0.0625,-1.203125 0,-1.734375 -0.0625,-0.40625 -0.17188,-0.8125 -0.32813,-1.21875 -0.15625,-0.40625 -0.32813,-0.8125 -0.51563,-1.21875 -0.15621,-0.40625 -0.29687,-0.8125 -0.42187,-1.21875 -0.0937,-0.4375 -0.10937,-0.875 -0.0469,-1.3125 -0.90625,-1.46875 -1.71879,-3 -2.4375,-4.59375 -0.71875,-1.625 -1.51563,-3.171875 -2.39063,-4.640625 0.125,-0.1875 0.17184,-0.421875 0.14063,-0.703125 -0.0312,-0.21875 -0.14063,-0.328125 -0.32813,-0.328125 -0.1875,-0.03125 -0.28125,-0.171875 -0.28125,-0.421875 0.375,-0.15625 0.625,-0.4375 0.75,-0.84375 0.125,-0.4375 0.26563,-0.84375 0.42188,-1.21875 -0.0625,-0.21875 -0.14063,-0.40625 -0.23438,-0.5625 C 307.8125,15.265625 307.73437,15.125 307.64062,15 c -0.0625,-0.125 -0.125,-0.265625 -0.1875,-0.421875 -0.0625,-0.15625 -0.125,-0.359375 -0.1875,-0.609375 -0.15621,-0.03125 -0.26562,-0.01563 -0.32812,0.04687 -0.0312,0.0625 -0.125,0.09375 -0.28125,0.09375 -0.0625,-0.34375 -0.20316,-0.609375 -0.42187,-0.796875 -0.21875,-0.1875 -0.43751,-0.359375 -0.65626,-0.515625 -0.21871,-0.1875 -0.42187,-0.375 -0.60937,-0.5625 -0.1875,-0.21875 -0.29688,-0.515625 -0.32813,-0.890625 -0.43746,-0.4375 -0.92187,-0.671875 -1.45312,-0.703125 -0.53125,-0.0625 -1.03125,-0.21875 -1.5,-0.46875 z m 73.59375,0 c -0.46875,0.3125 -0.82813,0.59375 -1.07813,0.84375 -0.24996,0.25 -0.51562,0.640625 -0.79687,1.171875 -0.4375,0.0625 -0.76566,0.09375 -0.98437,0.09375 -0.1875,0 -0.45313,0.01563 -0.79688,0.04687 -0.4375,0.59375 -0.8125,1.078125 -1.125,1.453125 -0.3125,0.375 -0.8125,0.71875 -1.5,1.03125 v 0.609375 c -0.3125,0.09375 -0.57813,0.21875 -0.79688,0.375 -0.21871,0.15625 -0.43753,0.328125 -0.65624,0.515625 -0.1875,0.1875 -0.40626,0.359375 -0.65626,0.515625 -0.21871,0.15625 -0.48437,0.265625 -0.79687,0.328125 -0.15625,0.28125 -0.34375,0.515625 -0.5625,0.703125 -0.1875,0.1875 -0.40625,0.375 -0.65625,0.5625 -0.21875,0.15625 -0.4375,0.328125 -0.65625,0.515625 -0.1875,0.1875 -0.34375,0.421875 -0.46875,0.703125 -0.1875,0.0625 -0.35941,0.171875 -0.51562,0.328125 l -0.375,0.46875 c -0.0937,0.15625 -0.21879,0.28125 -0.375,0.375 -0.125,0.09375 -0.29688,0.09375 -0.51563,0 -1,1.1875 -2.04688,2.421875 -3.14063,3.703125 -1.06246,1.28125 -2.01562,2.65625 -2.85937,4.125 -0.7295,1.269878 -1.29879,2.650739 -1.72461,4.130859 -0.26024,-0.171328 -0.50205,-0.357515 -0.71289,-0.568359 l -1.125,-1.125 c -0.375,-0.40625 -0.76566,-0.78125 -1.17187,-1.125 -0.40625,-0.375 -0.89063,-0.6875 -1.45313,-0.9375 -0.59375,-0.34375 -1.23441,-0.6875 -1.92187,-1.03125 -0.6875,-0.375 -1.35938,-0.734375 -2.01563,-1.078125 -0.65625,-0.34375 -1.28125,-0.6875 -1.875,-1.03125 -0.59375,-0.34375 -1.09375,-0.671875 -1.5,-0.984375 l -3.89063,2.578125 c -0.0625,0.3125 -0.15628,0.578125 -0.28124,0.796875 -0.125,0.21875 -0.20313,0.5 -0.23438,0.84375 0.125,0.0625 0.20313,0.0625 0.23438,0 0.0625,-0.0625 0.0937,-0.125 0.0937,-0.1875 l 0.0938,-0.1875 c 0.0312,-0.0625 0.12503,-0.0625 0.28124,0 0.21875,0.15625 0.32813,0.359375 0.32813,0.609375 0,0.25 -0.10938,0.46875 -0.32813,0.65625 0.0625,0.75 0.25004,1.359375 0.5625,1.828125 0.34375,0.46875 0.76563,0.84375 1.26563,1.125 -0.125,0.15625 -0.29688,0.3125 -0.51563,0.46875 -0.18746,0.125 -0.18746,0.28125 0,0.46875 0.4375,0.125 0.93754,0.296875 1.5,0.515625 -1.90621,0.5 -3.78125,1 -5.625,1.5 -1.84371,0.46875 -3.82812,0.8125 -5.95312,1.03125 -0.15625,0.0625 -0.25,0.171875 -0.28125,0.328125 -0.0312,0.15625 -0.10941,0.28125 -0.23437,0.375 -1.03125,-0.21875 -2.06251,-0.28125 -3.09376,-0.1875 -1.03121,0.0625 -2.14062,0.0625 -3.32812,0 -0.0625,-0.15625 -0.15625,-0.296875 -0.28125,-0.421875 -0.0937,-0.125 -0.17191,-0.265625 -0.23437,-0.421875 0.59371,-1.03125 1.31253,-2.078125 2.15624,-3.140625 0.84375,-1.09375 1.75001,-2.140625 2.71876,-3.140625 0.96871,-1.03125 1.96875,-2 3,-2.90625 1.06246,-0.90625 2.10937,-1.734375 3.14062,-2.484375 1.03125,-0.75 2.0625,-1.40625 3.09375,-1.96875 1.0625,-0.59375 2.09375,-1.140625 3.09375,-1.640625 1.03125,-0.5 2,-0.96875 2.90625,-1.40625 0.9375,-0.46875 1.78125,-0.953125 2.53125,-1.453125 -0.0625,-0.25 -0.0625,-0.421875 0,-0.515625 0.0937,-0.125 0.14062,-0.28125 0.14062,-0.46875 0,-0.21875 -0.10937,-0.328125 -0.32812,-0.328125 -0.21875,0 -0.32812,-0.109375 -0.32812,-0.328125 0.28121,0 0.42187,-0.07813 0.42187,-0.234375 0,-0.15625 -0.0312,-0.328125 -0.0937,-0.515625 -0.0625,-0.1875 -0.10941,-0.359375 -0.14062,-0.515625 0,-0.15625 0.10937,-0.234375 0.32812,-0.234375 -0.21875,-0.5625 -0.54688,-1 -0.98438,-1.3125 -0.40621,-0.34375 -0.85937,-0.625 -1.35937,-0.84375 -0.46875,-0.25 -0.9375,-0.484375 -1.40625,-0.703125 -0.4375,-0.25 -0.79691,-0.671875 -1.07812,-1.265625 -0.21875,-0.0625 -0.43751,-0.04687 -0.65626,0.04687 -0.18746,0.0625 -0.45312,-0.01563 -0.79687,-0.234375 -0.96875,0.84375 -2.0625,1.625 -3.28125,2.34375 -1.1875,0.71875 -2.375,1.421875 -3.5625,2.109375 -1.1875,0.6875 -2.32813,1.40625 -3.42188,2.15625 -1.09371,0.75 -2.03125,1.578125 -2.8125,2.484375 -0.34371,0.0625 -0.62503,0.1875 -0.84374,0.375 -0.21875,0.15625 -0.42188,0.34375 -0.60938,0.5625 -0.15625,0.21875 -0.32816,0.453125 -0.51562,0.703125 -0.15625,0.21875 -0.37501,0.4375 -0.65626,0.65625 C 321.48441,23.75 320,25.3125 318.75,27.09375 c -1.21875,1.75 -2.3125,3.65625 -3.28125,5.71875 0.0625,0.4375 0.0468,0.796875 -0.0469,1.078125 -0.0937,0.28125 -0.14063,0.59375 -0.14063,0.9375 0.0625,0.0625 0.14066,0.125 0.23437,0.1875 0.0937,0.03125 0.12497,0.125 0.0938,0.28125 0.15621,3.28125 1.03125,5.859375 2.625,7.734375 1.59371,1.875 3.79687,2.875 6.60937,3 0.40625,0.03125 0.84375,-0.01563 1.3125,-0.140625 0.46875,-0.125 0.92191,-0.1875 1.35937,-0.1875 h 1.26563 c 0.5,0 1.0625,-0.04687 1.6875,-0.140625 0.0937,-0.0625 0.15625,-0.140625 0.1875,-0.234375 0.0625,-0.09375 0.17188,-0.125 0.32813,-0.09375 0.40621,-0.03125 0.78125,-0.07813 1.125,-0.140625 l 1.03124,-0.1875 c 0.34375,-0.0625 0.70313,-0.109375 1.07813,-0.140625 0.375,-0.03125 0.82816,-0.04687 1.35937,-0.04687 1.21875,-0.46875 2.45313,-0.875 3.70313,-1.21875 1.28125,-0.375 2.54691,-0.71875 3.79687,-1.03125 1.25,-0.34375 2.46876,-0.6875 3.65626,-1.03125 1.18746,-0.375 2.29687,-0.828125 3.32812,-1.359375 1.0625,-0.53125 2.01563,-1.15625 2.85938,-1.875 0.26152,-0.232492 0.50661,-0.485525 0.74414,-0.748047 0.0214,0.577641 0.0656,1.168042 0.14648,1.779297 0.40625,1.03125 0.92188,2 1.54688,2.90625 0.65621,0.90625 1.42187,1.6875 2.29687,2.34375 0.90625,0.65625 1.92191,1.140625 3.04687,1.453125 1.125,0.3125 2.37504,0.375 3.75,0.1875 1.4375,0.3125 2.68754,0.390625 3.75,0.234375 1.0625,-0.15625 2.15626,-0.4375 3.28126,-0.84375 0.46871,0.0625 1.00003,0.04687 1.59374,-0.04687 0.59375,-0.125 1.18751,-0.28125 1.78126,-0.46875 0.59371,-0.1875 1.17187,-0.390625 1.73437,-0.609375 0.5625,-0.25 1.04688,-0.5 1.45313,-0.75 0.53121,-0.125 1.04687,-0.234375 1.54687,-0.328125 0.5,-0.125 0.96875,-0.3125 1.40625,-0.5625 0.625,-0.53125 1.3125,-0.984375 2.0625,-1.359375 0.75,-0.40625 1.375,-0.921875 1.875,-1.546875 0.40625,-0.25 0.76566,-0.609375 1.07812,-1.078125 0.3125,-0.5 0.56254,-1.03125 0.75,-1.59375 0.1875,-0.5625 0.31254,-1.140625 0.375,-1.734375 0.0625,-0.625 0.0625,-1.203125 0,-1.734375 -0.0625,-0.40625 -0.17187,-0.8125 -0.32812,-1.21875 -0.15625,-0.40625 -0.32816,-0.8125 -0.51562,-1.21875 -0.15625,-0.40625 -0.29688,-0.8125 -0.42188,-1.21875 -0.0937,-0.4375 -0.10934,-0.875 -0.0469,-1.3125 -0.90621,-1.46875 -1.71875,-3 -2.4375,-4.59375 C 382.67191,22.515625 381.875,20.96875 381,19.5 c 0.125,-0.1875 0.17187,-0.421875 0.14062,-0.703125 -0.0312,-0.21875 -0.14062,-0.328125 -0.32812,-0.328125 -0.1875,-0.03125 -0.28125,-0.171875 -0.28125,-0.421875 0.375,-0.15625 0.625,-0.4375 0.75,-0.84375 0.125,-0.4375 0.26566,-0.84375 0.42187,-1.21875 -0.0625,-0.21875 -0.14062,-0.40625 -0.23437,-0.5625 C 381.40625,15.265625 381.32809,15.125 381.23438,15 c -0.0625,-0.125 -0.12504,-0.265625 -0.1875,-0.421875 -0.0625,-0.15625 -0.12504,-0.359375 -0.1875,-0.609375 -0.15625,-0.03125 -0.26563,-0.01563 -0.32813,0.04687 -0.0312,0.0625 -0.125,0.09375 -0.28125,0.09375 -0.0625,-0.34375 -0.20313,-0.609375 -0.42188,-0.796875 -0.21871,-0.1875 -0.43753,-0.359375 -0.65624,-0.515625 -0.21875,-0.1875 -0.42188,-0.375 -0.60938,-0.5625 -0.1875,-0.21875 -0.29691,-0.515625 -0.32812,-0.890625 -0.4375,-0.4375 -0.92188,-0.671875 -1.45313,-0.703125 -0.53125,-0.0625 -1.03125,-0.21875 -1.5,-0.46875 z m -347.578125,0.5625 -0.984375,0.04687 c -1.90625,0.15625 -3.625,0.40625 -5.15625,0.75 -1.53125,0.34375 -2.765625,0.640625 -3.703125,0.890625 -0.5,0.125 -1.015625,0.28125 -1.546875,0.46875 -0.09375,0.125 -0.234375,0.203125 -0.421875,0.234375 -0.1875,0.03125 -0.390625,0.04687 -0.609375,0.04687 -0.25,0.03125 -0.53125,0.07813 -0.84375,0.140625 -0.28125,0.03125 -0.546875,0.15625 -0.796875,0.375 -0.75,0.1875 -1.5,0.40625 -2.25,0.65625 -0.75,0.25 -1.484375,0.5 -2.203125,0.75 -0.71875,0.25 -1.453125,0.5 -2.203125,0.75 C 6.234375,16.0625 5.5,16.265625 4.78125,16.453125 L 4.3125,16.921875 C 4.28125,16.984375 4.109375,17.21875 3.796875,17.625 l -0.09375,0.5625 C 3.640625,18.375 3.65625,18.671875 3.75,19.078125 c 0.125,0.21875 0.1875,0.390625 0.1875,0.515625 0,0.09375 -0.03125,0.171875 -0.09375,0.234375 l -0.28125,0.5625 0.5625,0.375 c 0.15625,0.15625 0.296875,0.328125 0.421875,0.515625 0.125,0.1875 0.265625,0.40625 0.421875,0.65625 0.15625,0.25 0.296875,0.5 0.421875,0.75 0.15625,0.21875 0.46875,0.5 0.9375,0.84375 0.125,0.03125 0.234375,0.0625 0.328125,0.09375 H 6.9375 c 0.1875,0.0625 0.3125,0.109375 0.375,0.140625 0.09375,0 0.234375,0.07813 0.421875,0.234375 -0.0625,0.15625 -0.125,0.34375 -0.1875,0.5625 C 7.484375,24.78125 7.46875,25.03125 7.5,25.3125 7.3125,25.65625 7.15625,26 7.03125,26.34375 6.90625,26.6875 6.796875,27.03125 6.703125,27.375 l -0.28125,0.75 c -0.0625,0.25 -0.25,0.4375 -0.5625,0.5625 C 5.703125,28.5625 5.53125,28.4375 5.34375,28.3125 5.1875,28.1875 5.03125,28.046875 4.875,27.890625 L 4.171875,27.65625 C 3.765625,27.75 3.34375,27.875 2.90625,28.03125 c -0.4375,0.125 -0.859375,0.328125 -1.265625,0.609375 -0.40625,0.25 -0.75,0.59375 -1.03125,1.03125 C 0.296875,30.078125 0.09375,30.65625 0,31.40625 c 0.0625,0.875 0.34375004,1.796875 0.84375,2.765625 0.5,0.96875 1.21875,1.71875 2.15625,2.25 C 2.9375,36.671875 2.875,36.90625 2.8125,37.125 2.75,37.34375 2.6875,37.578125 2.625,37.828125 2.375,38.546875 2.171875,39.28125 2.015625,40.03125 1.890625,40.75 1.9375,41.65625 2.15625,42.75 c 0.125,0.28125 0.265625,0.53125 0.421875,0.75 l 0.46875,0.65625 0.375,0.5625 C 3.546875,44.875 3.65625,45.046875 3.75,45.234375 l 0.5625,0.46875 c 0.15625,0.03125 0.3125,0.07813 0.46875,0.140625 0.15625,0.03125 0.3125,0.07813 0.46875,0.140625 0.25,0.09375 0.484375,0.1875 0.703125,0.28125 0.25,0.09375 0.625,0.109375 1.125,0.04687 0.46875,-0.25 0.875,-0.59375 1.21875,-1.03125 C 8.640625,44.8125 8.875,44.28125 9,43.6875 9.15625,42.96875 9.078125,42.328125 8.765625,41.765625 c 0,-0.09375 0.015625,-0.1875 0.046875,-0.28125 0.03125,-0.09375 0.078125,-0.203125 0.140625,-0.328125 0.0625,-0.1875 0.125,-0.390625 0.1875,-0.609375 0.09375,-0.21875 0.140625,-0.453125 0.140625,-0.703125 h 0.046875 c 0,-0.03125 0.140625,-0.07813 0.421875,-0.140625 l -0.046875,-0.84375 c 0.15625,-0.21875 0.28125,-0.421875 0.375,-0.609375 0.125,-0.21875 0.21875,-0.4375 0.28125,-0.65625 0.0625,-0.1875 0.125,-0.359375 0.1875,-0.515625 0.0625,-0.1875 0.1875,-0.359375 0.375,-0.515625 0.28125,-0.09375 0.578125,-0.1875 0.890625,-0.28125 0.3125,-0.09375 0.625,-0.140625 0.9375,-0.140625 0.0625,0 0.125,0.01563 0.1875,0.04687 0.0625,0 0.265625,-0.01563 0.609375,-0.04687 0.5625,-0.21875 1.15625,-0.375 1.78125,-0.46875 0.65625,-0.125 1.328125,-0.25 2.015625,-0.375 l 1.5,-0.1875 c 0.5,-0.09375 1.125,-0.203125 1.875,-0.328125 0.28125,0 0.5625,-0.03125 0.84375,-0.09375 0.28125,-0.09375 0.546875,-0.171875 0.796875,-0.234375 0.53125,-0.15625 1.09375,-0.21875 1.6875,-0.1875 l 0.46875,0.140625 0.28125,-0.375 L 27,31.21875 27.140625,30.75 c -0.03125,-0.34375 -0.109375,-0.609375 -0.234375,-0.796875 -0.125,-0.21875 -0.265625,-0.375 -0.421875,-0.46875 L 26.15625,29.015625 C 26.0625,28.953125 25.953125,28.90625 25.828125,28.875 c -0.09375,-0.0625 -0.25,-0.140625 -0.46875,-0.234375 l 0.28125,-0.75 L 25.125,27.84375 25.546875,27.421875 H 23.71875 c -0.96875,0 -1.90625,0.0625 -2.8125,0.1875 -0.875,0.09375 -1.75,0.21875 -2.625,0.375 -0.6875,0.09375 -1.34375,0.1875 -1.96875,0.28125 -0.59375,0.0625 -1.203125,0.125 -1.828125,0.1875 l -0.1875,-0.5625 c -0.0625,-0.25 -0.0625,-0.484375 0,-0.703125 C 14.390625,26.9375 14.5,26.75 14.625,26.625 l 0.234375,-0.46875 c -0.03125,-1.0625 0.28125,-1.984375 0.9375,-2.765625 0.03125,-0.1875 0.04687,-0.359375 0.04687,-0.515625 0.03125,-0.1875 0.0625,-0.359375 0.09375,-0.515625 0.0625,-0.21875 0.109375,-0.4375 0.140625,-0.65625 0.03125,-0.25 0.03125,-0.5 0,-0.75 0.1875,-0.125 0.328125,-0.203125 0.421875,-0.234375 0.40625,-0.15625 0.734375,-0.328125 0.984375,-0.515625 0.90625,-0.34375 1.96875,-0.65625 3.1875,-0.9375 1.21875,-0.3125 2.46875,-0.5625 3.75,-0.75 1.28125,-0.21875 2.53125,-0.375 3.75,-0.46875 1.25,-0.125 2.34375,-0.1875 3.28125,-0.1875 h 0.65625 c 0.21875,0 0.53125,0.01563 0.9375,0.04687 l 0.609375,-0.328125 0.65625,-0.1875 c 0.21875,-0.0625 0.421875,-0.28125 0.609375,-0.65625 0.21875,-0.71875 0.15625,-1.453125 -0.1875,-2.203125 l -0.375,-0.375 c -0.09374,-0.0625 -0.20312,-0.14062 -0.32812,-0.23437 L 33.609375,13.5 c -0.21875,-0.21875 -0.453125,-0.4375 -0.703125,-0.65625 -0.25,-0.25 -0.53125,-0.453125 -0.84375,-0.609375 -0.53125,-1 -1.609375,-1.5 -3.234375,-1.5 -0.1875,0 -0.375,0.01563 -0.5625,0.04687 -0.1875,0 -0.375,-0.01563 -0.5625,-0.04687 z m 54.1875,0.04687 c -1.4375,0.15625 -2.640625,0.625 -3.609375,1.40625 -0.96875,0.78125 -1.84375,1.6875 -2.625,2.71875 -0.75,1 -1.5,2.03125 -2.25,3.09375 -0.75,1.0625 -1.609375,1.96875 -2.578125,2.71875 -0.15625,-0.25 -0.484375,-0.453125 -0.984375,-0.609375 -0.46875,-0.1875 -0.921875,-0.25 -1.359375,-0.1875 -0.375,0.84375 -0.6875,1.75 -0.9375,2.71875 -0.21875,0.9375 -0.421875,1.921875 -0.609375,2.953125 -0.1875,1 -0.40625,2.015625 -0.65625,3.046875 -0.21875,1.03125 -0.53125,2.03125 -0.9375,3 0.03125,0.1875 0.04687,0.4375 0.04687,0.75 0.03125,0.28125 0.01563,0.5625 -0.04687,0.84375 -0.03125,0.25 -0.09375,0.46875 -0.1875,0.65625 -0.0625,0.15625 -0.171875,0.1875 -0.328125,0.09375 0.21875,0.5625 0.265625,1.109375 0.140625,1.640625 -0.09375,0.5 -0.21875,1.03125 -0.375,1.59375 -0.15625,0.53125 -0.296875,1.09375 -0.421875,1.6875 -0.09375,0.5625 -0.03125,1.1875 0.1875,1.875 H 63.84375 c 0.15625,0.25 0.296875,0.515625 0.421875,0.796875 0.125,0.25 0.265625,0.359375 0.421875,0.328125 -0.09375,0.25 -0.125,0.46875 -0.09375,0.65625 l 0.1875,0.5625 c 0.0625,0.15625 0.109375,0.34375 0.140625,0.5625 0.03125,0.1875 0,0.421875 -0.09375,0.703125 0.40625,-0.03125 0.65625,0.09375 0.75,0.375 0.09375,0.25 0.1875,0.515625 0.28125,0.796875 0.34375,-0.03125 0.59375,0 0.75,0.09375 0.15625,0.09375 0.296875,0.1875 0.421875,0.28125 0.125,0.09375 0.265625,0.171875 0.421875,0.234375 0.15625,0.09375 0.390625,0.109375 0.703125,0.04687 0.25,-0.15625 0.453125,-0.328125 0.609375,-0.515625 0.1875,-0.1875 0.53125,-0.234375 1.03125,-0.140625 0.625,-0.8125 1.09375,-1.609375 1.40625,-2.390625 0.34375,-0.78125 0.59375,-1.796875 0.75,-3.046875 0.09375,-0.03125 0.140625,-0.09375 0.140625,-0.1875 0.03125,-0.09375 0.09375,-0.15625 0.1875,-0.1875 0.6875,0.625 1.296875,1.171875 1.828125,1.640625 0.53125,0.4375 1.109375,0.859375 1.734375,1.265625 0.625,0.375 1.359375,0.765625 2.203125,1.171875 0.84375,0.40625 1.9375,0.859375 3.28125,1.359375 2.71875,1.03125 4.953125,1.75 6.703125,2.15625 1.75,0.40625 3.1875,0.390625 4.3125,-0.04687 0.3125,-0.03125 0.5625,-0.140625 0.75,-0.328125 0.21875,-0.1875 0.40625,-0.390625 0.5625,-0.609375 L 94.125,45.70312 c 0.15625,-0.21875 0.34375,-0.40625 0.5625,-0.5625 -0.15625,-0.03125 -0.3125,-0.03125 -0.46875,0 -0.125,0 -0.203125,-0.0625 -0.234375,-0.1875 0.21875,-0.25 0.34375,-0.578125 0.375,-0.984375 0.0625,-0.4375 0.04687,-0.890625 -0.04687,-1.359375 -0.09375,-0.46875 -0.25,-0.9375 -0.46875,-1.40625 -0.21875,-0.46875 -0.5,-0.875 -0.84375,-1.21875 -0.843755,-0.09374 -1.51563,-0.17187 -2.01563,-0.23437 -0.5,-0.0625 -0.96875,-0.125 -1.40625,-0.1875 -0.4375,-0.09375 -0.9375,-0.203125 -1.5,-0.328125 -0.53125,-0.15625 -1.28125,-0.34375 -2.25,-0.5625 -0.96875,-0.21875 -1.734375,-0.40625 -2.296875,-0.5625 C 83,37.953125 82.5,37.765625 82.03125,37.546875 81.59375,37.296875 81.109375,37 80.578125,36.65625 c -0.5,-0.34375 -1.21875,-0.796875 -2.15625,-1.359375 0.0625,-0.1875 0.01563,-0.28125 -0.140625,-0.28125 -0.125,0 -0.1875,-0.0625 -0.1875,-0.1875 1.25,-0.53125 2.640625,-1.015625 4.171875,-1.453125 1.53125,-0.46875 2.96875,-1.015625 4.3125,-1.640625 1.375,-0.65625 2.53125,-1.484375 3.46875,-2.484375 0.96875,-1.03125 1.515625,-2.375 1.640625,-4.03125 0,-0.25 -0.01563,-0.453125 -0.04687,-0.609375 -0.03125,-0.1875 -0.07813,-0.34375 -0.140625,-0.46875 -0.03125,-0.15625 -0.0625,-0.296875 -0.09375,-0.421875 0,-0.15625 0.03125,-0.328125 0.09375,-0.515625 -0.28125,-0.53125 -0.53125,-1.109375 -0.75,-1.734375 -0.21875,-0.625 -0.453125,-1.234375 -0.703125,-1.828125 C 89.828125,19.015625 89.5625,18.4375 89.25,17.90625 88.96875,17.34375 88.609375,16.859375 88.171875,16.453125 V 15.75 l -0.75,-0.46875 c -0.21875,-0.1875 -0.453125,-0.359375 -0.703125,-0.515625 -0.59375,-0.90625 -1.359375,-1.65625 -2.296875,-2.25 -0.9375,-0.625 -1.78125,-1.203125 -2.53125,-1.734375 z m 73.499995,0.140625 c -1.21871,0 -2.46875,0.07813 -3.75,0.234375 -1.28121,0.15625 -2.54687,0.3125 -3.79687,0.46875 -0.90625,0.125 -1.78125,0.25 -2.625,0.375 -0.84375,0.09375 -1.67191,0.171875 -2.48437,0.234375 -0.15625,-0.1875 -0.37501,-0.375 -0.65626,-0.5625 -0.28121,-0.21875 -0.78125,-0.3125 -1.5,-0.28125 l -0.51562,0.28125 C 140,11.796875 139.9375,11.90625 139.875,12 c -0.0312,0.09375 -0.125,0.3125 -0.28125,0.65625 -1.65625,0.09375 -3.20313,0.234375 -4.64063,0.421875 -1.31246,0.125 -2.59378,0.234375 -3.84374,0.328125 -1.25,0.09375 -2.46876,0.140625 -3.65626,0.140625 h -0.79687 c -0.25,0 -0.5,-0.01563 -0.75,-0.04687 h -0.70313 l -0.0488,0.216797 C 124.63929,13.465052 124.148,13.195007 123.70314,12.89063 123.10941,12.453125 122.625,11.90625 122.25,11.25 c 0.0312,0.15625 0.0156,0.265625 -0.0469,0.328125 -0.0625,0.03125 -0.14062,0.03125 -0.23437,0 -0.0625,-0.03125 -0.15625,-0.0625 -0.28125,-0.09375 -0.0937,-0.03125 -0.17188,-0.04687 -0.23438,-0.04687 v 0.234375 c 0.0312,0.0625 0.0469,0.140625 0.0469,0.234375 -0.25,0 -0.42191,-0.109375 -0.51562,-0.328125 h -0.32813 c -0.0625,0 -0.10938,-0.04687 -0.14063,-0.140625 -1.59371,0.28125 -3.00003,0.5 -4.21874,0.65625 -1.21875,0.125 -2.39063,0.28125 -3.51563,0.46875 -1.125,0.15625 -2.28125,0.375 -3.46875,0.65625 -1.1875,0.25 -2.53125,0.609375 -4.03125,1.078125 -0.84375,0.1875 -1.64063,0.359375 -2.39063,0.515625 -0.74996,0.125 -1.45312,0.3125 -2.10937,0.5625 -0.625,0.21875 -1.203125,0.515625 -1.734375,0.890625 -0.53125,0.343745 -0.984375,0.79687 -1.359375,1.35937 0.1875,0.625 0.3125,1.25 0.375,1.875 0.0625,0.59375 0.15625,1.1875 0.28125,1.78125 0.125,0.59375 0.296875,1.1875 0.515625,1.78125 0.25,0.5625 0.640625,1.09375 1.171875,1.59375 -0.25,0.71875 -0.53125,1.375 -0.84375,1.96875 l -0.84375,1.6875 c -0.28125,0.5625 -0.546875,1.140625 -0.796875,1.734375 -0.25,0.59375 -0.484375,1.234375 -0.703125,1.921875 -0.25,-0.0625 -0.40625,0 -0.46875,0.1875 -0.03125,0.15625 -0.140625,0.25 -0.328125,0.28125 0.0625,0.25 0.04687,0.5 -0.04687,0.75 -0.0625,0.25 -0.171875,0.5 -0.328125,0.75 -0.125,0.21875 -0.265625,0.453125 -0.421875,0.703125 -0.125,0.25 -0.21875,0.515625 -0.28125,0.796875 -0.09375,0.53125 -0.125,1.125 -0.09375,1.78125 0.0625,0.625 0.140625,1.265625 0.234375,1.921875 0.125,0.625 0.234375,1.25 0.328125,1.875 0.125,0.59375 0.21875,1.125 0.28125,1.59375 0.40625,0.21875 0.65625,0.5 0.75,0.84375 0.125,0.34375 0.3125,0.640625 0.5625,0.890625 0.75,0.71875 1.6875,1.21875 2.8125,1.5 1.125005,0.28125 2.296885,0.4375 3.515635,0.46875 1.21871,0.03125 2.42187,-0.03125 3.60937,-0.1875 1.21875,-0.15625 2.26563,-0.3125 3.14063,-0.46875 0.24996,0 0.48437,0.04687 0.70312,0.140625 0.25,0.0625 0.54691,0.0625 0.89062,0 1.40625,-0.25 2.67188,-0.453125 3.79688,-0.609375 1.15625,-0.1875 2.1875,-0.453125 3.09375,-0.796875 0.9375,-0.375 1.76566,-0.890625 2.48437,-1.546875 0.75,-0.65625 1.42188,-1.59375 2.01563,-2.8125 -0.25,0.03125 -0.42188,0 -0.51563,-0.09375 -0.0937,-0.125 -0.17187,-0.28125 -0.23437,-0.46875 -0.0312,-0.1875 -0.0781,-0.390625 -0.14063,-0.609375 -0.0312,-0.21875 -0.12503,-0.40625 -0.28124,-0.5625 -0.34375,0.0625 -0.62501,0 -0.84376,-0.1875 -0.21871,-0.1875 -0.43753,-0.40625 -0.65624,-0.65625 -0.1875,-0.28125 -0.39063,-0.546875 -0.60938,-0.796875 -0.21875,-0.28125 -0.48438,-0.46875 -0.79688,-0.5625 -0.87496,0.28125 -1.82812,0.5 -2.85937,0.65625 -1,0.125 -1.89066,0.375 -2.67187,0.75 -1.15625,-0.03125 -2.14063,0 -2.95313,0.09375 -0.78125,0.09375 -1.54691,0.1875 -2.29687,0.28125 -0.75,0.09375 -1.54688,0.15625 -2.39063,0.1875 -0.84375,0.03125 -1.90625,-0.04687 -3.1875,-0.234375 0.375,-1 0.8125,-1.9375 1.3125,-2.8125 0.5,-0.90625 1.03125,-1.765625 1.59375,-2.578125 0.4375,0.15625 0.9375,0.234375 1.5,0.234375 0.59375,0 1.10938,0.07813 1.54688,0.234375 0.34371,-0.15625 0.76562,-0.203125 1.26562,-0.140625 0.53125,0.03125 0.95316,-0.03125 1.26562,-0.1875 0.15625,0.125 0.28129,0.1875 0.375,0.1875 h 0.42188 c 0.875,0.03125 1.6875,-0.0625 2.4375,-0.28125 0.75,-0.21875 1.4375,-0.5 2.0625,-0.84375 0.65625,-0.34375 1.28125,-0.71875 1.875,-1.125 0.59375,-0.4375 1.20316,-0.859375 1.82812,-1.265625 0.15625,-0.375 0.20313,-0.734375 0.14063,-1.078125 C 120.21875,27.828125 120.10937,27.5 119.95312,27.1875 119.57816,27.21875 119.25,27.15625 118.96875,27 118.6875,26.8125 118.40625,26.59375 118.125,26.34375 L 117.375,25.5 c -0.25,-0.28125 -0.51563,-0.515625 -0.79688,-0.703125 0,-0.15625 0.0313,-0.265625 0.0938,-0.328125 0.0625,-0.0625 0.0781,-0.171875 0.0469,-0.328125 -1.53125,0.0625 -3.09375,0.171875 -4.6875,0.328125 -1.59375,0.125 -3.04691,0.125 -4.35937,0 -0.0937,-0.25 -0.14063,-0.546875 -0.14063,-0.890625 0.0312,-0.34375 -0.0312,-0.6875 -0.1875,-1.03125 0.34375,-0.09375 0.67191,-0.1875 0.98437,-0.28125 0.34375,-0.09375 0.64063,-0.25 0.89063,-0.46875 0.375,0.0625 0.6875,0.0625 0.9375,0 0.28125,-0.0625 0.53125,-0.125 0.75,-0.1875 0.21875,-0.0625 0.42191,-0.09375 0.60937,-0.09375 0.21875,-0.03125 0.45313,0 0.70313,0.09375 0.8125,-0.5 1.64066,-0.875 2.48437,-1.125 0.84375,-0.25 1.67188,-0.4375 2.48438,-0.5625 0.84375,-0.15625 1.65625,-0.296875 2.4375,-0.421875 0.8125,-0.125 1.57813,-0.3125 2.29688,-0.5625 0.71871,-0.25 1.39062,-0.609375 2.01562,-1.078125 0.28958,-0.206846 0.56115,-0.456462 0.82031,-0.736328 0.10866,0.356589 0.22113,0.704541 0.35157,1.017578 0.0937,0.25 0.17187,0.484375 0.23437,0.703125 0.0937,0.1875 0.15625,0.40625 0.1875,0.65625 v 0.515625 l 0.51563,0.140625 c 0.15621,0.03125 0.32812,0.21875 0.51562,0.5625 l 0.32812,0.375 c 0.34375,0.1875 0.67188,0.3125 0.98438,0.375 0.3125,0.03125 0.59375,0.04687 0.84375,0.04687 h 0.5625 0.5625 0.42187 0.84376 C 131.32809,21.421875 131.625,21.375 132,21.375 h 0.5625 0.5625 0.65625 c 0.21875,-0.03125 0.45313,-0.109375 0.70313,-0.234375 0.12496,0.03125 0.32812,0.04687 0.60937,0.04687 0.375,0 0.76566,-0.04687 1.17187,-0.140625 C 136.45312,21.015625 136.625,21 136.78125,21 c 0.1875,-0.03125 0.39066,-0.04687 0.60937,-0.04687 -0.0312,0.1875 -0.10937,0.40625 -0.23437,0.65625 -0.0937,0.25 -0.20313,0.5 -0.32813,0.75 -0.18746,0.40625 -0.35937,0.8125 -0.51562,1.21875 -0.15625,0.375 -0.23438,0.765625 -0.23438,1.171875 -0.0625,0.03125 -0.20312,0.140625 -0.42187,0.328125 l -0.51563,0.515625 c -0.21871,0.8125 -0.46875,1.609375 -0.75,2.390625 -0.28121,0.78125 -0.57812,1.546875 -0.89062,2.296875 -0.5625,1.40625 -1.07813,2.859375 -1.54688,4.359375 -0.46871,1.46875 -0.67187,3.296875 -0.60937,5.484375 0.15625,0.21875 0.26563,0.46875 0.32813,0.75 0.0937,0.28125 0.18753,0.59375 0.28124,0.9375 0.0937,0.4375 0.20313,0.859375 0.32813,1.265625 0.15625,0.40625 0.35941,0.78125 0.60937,1.125 0,0.125 -0.0156,0.34375 -0.0469,0.65625 l 0.51563,0.28125 c 0.18746,0.125 0.4375,0.234375 0.75,0.328125 0.0625,0.0625 0.14062,0.109375 0.23437,0.140625 0.0937,0 0.17191,0.03125 0.23437,0.09375 0.15625,0.21875 0.32813,0.359375 0.51563,0.421875 0.1875,0.09375 0.42188,0.203125 0.70313,0.328125 0.0312,0.0625 0.15625,0.203125 0.375,0.421875 l 0.65624,0.04687 c 1.3125,0 2.25004,-0.359375 2.8125,-1.078125 0.53125,-0.625 0.70313,-1.5 0.51563,-2.625 l -0.46875,-0.5625 C 139.46875,42.625 139.23434,42.5 138.98438,42.28125 138.92188,42.21875 138.84375,42.171875 138.75,42.140625 138.65625,42.109375 138.57812,42.0625 138.51562,42 138.45316,41.8125 138.375,41.65625 138.28125,41.53125 L 138,41.15625 C 137.9375,41 137.9219,40.84375 137.9531,40.6875 c 0.0312,-0.1875 0.0781,-0.390625 0.14063,-0.609375 l 0.0937,-0.5625 c 0.0312,-0.1875 0.0469,-0.375 0.0469,-0.5625 0.12496,-0.1875 0.21878,-0.453125 0.28124,-0.796875 -0.0312,-0.09375 -0.0156,-0.21875 0.0469,-0.375 0.0625,-0.1875 0.125,-0.359375 0.1875,-0.515625 0.15625,-0.375 0.28125,-0.765625 0.375,-1.171875 0.125,-0.15625 0.20313,-0.296875 0.23438,-0.421875 0.0625,-0.125 0.20312,-0.296875 0.42187,-0.515625 l 0.1875,-0.703125 c 0.15625,-0.4375 0.32813,-0.96875 0.51563,-1.59375 0.21871,-0.625 0.56253,-1.203125 1.03124,-1.734375 0.15625,-0.65625 0.35938,-1.234375 0.60938,-1.734375 0.25,-0.53125 0.5625,-1.078125 0.9375,-1.640625 0.21875,-0.78125 0.45316,-1.484375 0.70312,-2.109375 0.25,-0.65625 0.51563,-1.296875 0.79688,-1.921875 0.28125,-0.625 0.54688,-1.25 0.79688,-1.875 0.24996,-0.625 0.53128,-1.34375 0.84374,-2.15625 0.5625,-0.0625 1.18754,-0.125 1.875,-0.1875 0.6875,-0.09375 1.40626,-0.1875 2.15626,-0.28125 1.03121,-0.15625 2.09375,-0.296875 3.1875,-0.421875 1.09371,-0.125 2.10937,-0.1875 3.04687,-0.1875 h 0.65625 c 0.1875,0 0.45313,0.01563 0.79688,0.04687 0.18746,-0.0625 0.35937,-0.109375 0.51562,-0.140625 0.15625,-0.0625 0.29688,-0.125 0.42188,-0.1875 0.21871,-0.09375 0.40625,-0.15625 0.5625,-0.1875 0.15621,-0.0625 0.39062,-0.09375 0.70312,-0.09375 h 0.51562 l 0.46876,-0.609375 c 0.18746,-0.125 0.34378,-0.25 0.46874,-0.375 l 0.23438,-0.46875 c 0.125,-1.09375 -0.0469,-1.921875 -0.51562,-2.484375 -0.4375,-0.5625 -0.89063,-1.03125 -1.35938,-1.40625 -0.25,-0.1875 -0.46875,-0.375 -0.65625,-0.5625 -0.1875,-0.1875 -0.34375,-0.390625 -0.46875,-0.609375 L 158.25,11.109375 C 157.8125,11.046875 157.35937,11 156.89062,10.96875 c -0.46871,-0.03125 -0.96875,-0.04687 -1.5,-0.04687 z m 103.54688,0 c -0.125,0 -0.23441,0.01563 -0.32812,0.04687 -0.0937,0.03125 -0.17188,0.0625 -0.23438,0.09375 -0.1875,0.0625 -0.40625,0.1875 -0.65625,0.375 -0.46875,1.875 -1,3.640625 -1.59375,5.296875 -0.5625,1.65625 -1.15625,3.34375 -1.78125,5.0625 -0.34375,0.9375 -0.70313,1.921875 -1.07813,2.953125 -0.34371,1 -0.70312,2.046875 -1.07812,3.140625 -0.0312,0.0625 -0.0625,0.140625 -0.0937,0.234375 -0.0312,0.0625 -0.0781,0.140625 -0.14063,0.234375 -0.15621,0.34375 -0.31253,0.71875 -0.46874,1.125 -0.15625,0.40625 -0.17188,0.78125 -0.0469,1.125 -0.3125,0.375 -0.54691,0.859375 -0.70312,1.453125 -0.15625,0.5625 -0.31251,1.140625 -0.46876,1.734375 -0.0625,0.34375 -0.14062,0.671875 -0.23437,0.984375 -0.15625,0.65625 -0.26563,1.359375 -0.32813,2.109375 -0.0625,0.75 -0.0469,1.5 0.0469,2.25 0.0937,0.71875 0.26566,1.421875 0.51562,2.109375 0.25,0.6875 0.59376,1.296875 1.03126,1.828125 0.0625,0.28125 0.14062,0.515625 0.23437,0.703125 0.0937,0.15625 0.20313,0.296875 0.32813,0.421875 0.0625,0.125 0.125,0.234375 0.1875,0.328125 0.0625,0.09375 0.15628,0.28125 0.28124,0.5625 1.125,0.9375 2.60938,1.40625 4.45313,1.40625 1.25,0 2.48438,-0.171875 3.70313,-0.515625 1.24996,-0.34375 2.40628,-0.6875 3.46874,-1.03125 0.15625,-0.0625 0.31251,-0.109375 0.46876,-0.140625 0.15621,-0.03125 0.42187,-0.07813 0.79687,-0.140625 0.46875,0 0.9375,-0.01563 1.40625,-0.04687 l 1.40625,-0.1875 c 0.4375,-0.0625 0.875,-0.109375 1.3125,-0.140625 0.46875,-0.03125 0.92191,-0.04687 1.35937,-0.04687 1.125,0 2.15626,0.171875 3.09376,0.515625 0.65621,-0.1875 1.29687,-0.28125 1.92187,-0.28125 0.3125,0 0.64066,-0.01563 0.98437,-0.04687 0.21875,-0.21875 0.42188,-0.390625 0.60938,-0.515625 C 277.5,43.765625 277.89063,43.625 278.48438,43.5 l -0.0938,-0.609375 c 0.125,-0.1875 0.1875,-0.40625 0.1875,-0.65625 0.0312,-0.125 -0.0781,-0.359375 -0.32812,-0.703125 l -0.42188,-2.390625 c -0.37496,-0.28125 -0.76562,-0.5 -1.17187,-0.65625 -0.375,-0.1875 -0.76566,-0.359375 -1.17187,-0.515625 -0.46875,-0.15625 -0.90629,-0.3125 -1.3125,-0.46875 -0.40625,-0.1875 -0.82813,-0.5 -1.26563,-0.9375 -0.15625,-0.03125 -0.28125,-0.04687 -0.375,-0.04687 H 272.25 271.78125 c -0.0937,-0.03125 -0.29691,-0.15625 -0.60937,-0.375 -0.9375,0.09375 -1.95313,0.140625 -3.04688,0.140625 -1.3125,0.03125 -2.64063,0.109375 -3.98438,0.234375 -1.31246,0.125 -2.53128,0.46875 -3.65624,1.03125 -0.375,-0.125 -0.76563,-0.1875 -1.17188,-0.1875 -0.3125,0 -0.65625,0.04687 -1.03125,0.140625 0.0625,-1.375 0.28125,-2.59375 0.65625,-3.65625 0.375,-1.09375 0.78125,-2.1875 1.21875,-3.28125 l 0.75,-1.78125 c 0.25,-0.625 0.4375,-1.421875 0.5625,-2.390625 0.1875,-0.15625 0.32816,-0.328125 0.42187,-0.515625 0.0937,-0.21875 0.17188,-0.421875 0.23438,-0.609375 0.0625,-0.15625 0.10941,-0.3125 0.14062,-0.46875 0.0625,-0.15625 0.18754,-0.34375 0.375,-0.5625 0.15625,-0.8125 0.34379,-1.5 0.5625,-2.0625 0.21875,-0.5625 0.45313,-1.125 0.70313,-1.6875 0.21875,-0.5 0.4375,-1.015625 0.65625,-1.546875 0.21875,-0.5625 0.42188,-1.203125 0.60938,-1.921875 0.12496,-0.0625 0.28128,-0.234375 0.46874,-0.515625 0.125,-0.8125 0.0312,-1.46875 -0.28124,-1.96875 C 265.07813,14 264.73437,13.5 264.32812,13.03125 l -0.79687,-0.703125 c -0.625,0 -1.39066,-0.140625 -2.29687,-0.421875 -0.875,-0.3125 -1.64063,-0.640625 -2.29688,-0.984375 z m -12.2168,0.01953 c -0.48047,-0.01367 -0.95511,-0.0039 -1.42382,0.02734 -1.875,0.09375 -3.70313,0.375 -5.48438,0.84375 -1.78125,0.46875 -3.53125,1 -5.25,1.59375 C 232.875,14 231.1875,14.453125 229.5,14.765625 229.4375,14.921875 229.46875,15 229.59375,15 c 0.125,0 0.1875,0.0625 0.1875,0.1875 -0.65625,0.1875 -1.35941,0.421875 -2.10937,0.703125 -0.75,0.25 -1.46876,0.578125 -2.15626,0.984375 -0.68746,0.375 -1.32812,0.84375 -1.92187,1.40625 -0.5625,0.5625 -0.98438,1.25 -1.26563,2.0625 0.0625,0.5 0.0469,0.890625 -0.0469,1.171875 -0.0625,0.28125 -0.15625,0.671875 -0.28125,1.171875 0.25,0.34375 0.35937,0.671875 0.32812,0.984375 -0.0312,0.28125 -0.0937,0.65625 -0.1875,1.125 0.1875,0.34375 0.39063,0.65625 0.60938,0.9375 0.25,0.25 0.48441,0.53125 0.70312,0.84375 0.34375,-0.0625 0.56251,-0.01563 0.65626,0.140625 0.0937,0.125 0.17187,0.28125 0.23437,0.46875 1.09375,0.46875 2.21875,0.796875 3.375,0.984375 1.1875,0.1875 2.4375,0.3125 3.75,0.375 0.53125,0.125 0.98441,0.25 1.35937,0.375 0.375,0.125 0.75004,0.0625 1.125,-0.1875 0.625,0.34375 1.39063,0.65625 2.29688,0.9375 0.90625,0.28125 1.76566,0.625 2.57812,1.03125 0.0625,0 0.12504,0.01563 0.1875,0.04687 l 0.28126,0.09375 c 0,0.125 0.0313,0.21875 0.0937,0.28125 l 0.1875,0.1875 c 0.0625,0.03125 0.10938,0.07813 0.14063,0.140625 0.0312,0.0625 0.0312,0.15625 0,0.28125 -0.0937,0.34375 -0.23441,0.640625 -0.42187,0.890625 -0.1875,0.21875 -0.39063,0.4375 -0.60938,0.65625 -0.21875,0.1875 -0.4375,0.390625 -0.65625,0.609375 -0.1875,0.21875 -0.32816,0.484375 -0.42187,0.796875 -0.875,0.4375 -1.78126,0.921875 -2.71876,1.453125 -0.90621,0.5 -1.87503,0.96875 -2.90624,1.40625 -1,0.4375 -2.07813,0.78125 -3.23438,1.03125 -1.125,0.25 -2.32813,0.3125 -3.60938,0.1875 -0.43746,0.25 -0.70312,0.5625 -0.79687,0.9375 -0.0937,0.34375 -0.125,0.71875 -0.0937,1.125 l 0.0937,1.21875 c 0.0625,0.375 0.0156,0.703125 -0.14063,0.984375 -0.0312,0.09375 -0.0156,0.171875 0.0469,0.234375 0.0937,0.0625 0.17188,0.125 0.23438,0.1875 0.0937,0.03125 0.14062,0.07813 0.14062,0.140625 0.0312,0.03125 -0.0157,0.09375 -0.14062,0.1875 l -0.0938,0.1875 c -0.0312,0.0625 -0.0469,0.15625 -0.0469,0.28125 0.15625,0 0.21875,0.09375 0.1875,0.28125 0,0.15625 0.0782,0.25 0.23437,0.28125 0.125,0.34375 0.28126,0.640625 0.46876,0.890625 0.21871,0.25 0.45312,0.5 0.70312,0.75 0.40625,-0.0625 0.8125,-0.07813 1.21875,-0.04687 0.4375,0.03125 0.85938,0.04687 1.26563,0.04687 0.43746,0.03125 0.82812,0.01563 1.17187,-0.04687 0.375,-0.0625 0.70316,-0.21875 0.98437,-0.46875 -0.0937,0.21875 -0.0625,0.3125 0.0938,0.28125 0.18746,-0.03125 0.34378,-0.03125 0.46874,0 1.375,-0.40625 2.76563,-0.90625 4.17188,-1.5 1.40625,-0.625 2.73438,-1.34375 3.98438,-2.15625 1.28121,-0.84375 2.42187,-1.8125 3.42187,-2.90625 1,-1.09375 1.76566,-2.328125 2.29687,-3.703125 0.3125,-0.71875 0.4375,-1.453125 0.375,-2.203125 -0.0312,-0.75 -0.0781,-1.59375 -0.14062,-2.53125 -0.25,-0.59375 -0.60941,-1.140625 -1.07812,-1.640625 -0.4375,-0.53125 -0.71876,-1.03125 -0.84376,-1.5 -0.18746,-0.21875 -0.35937,-0.296875 -0.51562,-0.234375 -0.125,0.0625 -0.25,-0.0625 -0.375,-0.375 0.0312,-0.34375 -0.0157,-0.71875 -0.14062,-1.125 -0.125,-0.4375 -0.32813,-0.84375 -0.60938,-1.21875 -0.28125,-0.375 -0.625,-0.6875 -1.03125,-0.9375 -0.40625,-0.28125 -0.89063,-0.4375 -1.45313,-0.46875 -0.0937,-0.375 -0.29687,-0.640625 -0.60937,-0.796875 -0.3125,-0.1875 -0.67188,-0.328125 -1.07813,-0.421875 l -1.125,-0.28125 c -0.37496,-0.125 -0.67187,-0.328125 -0.89062,-0.609375 0.0625,-0.1875 0.0469,-0.3125 -0.0469,-0.375 -0.0937,-0.0625 -0.12499,-0.171875 -0.0937,-0.328125 0.62496,-0.0625 1.21878,-0.140625 1.78124,-0.234375 0.5625,-0.125 1.01563,-0.34375 1.35938,-0.65625 0.4375,0.0625 0.90625,0.03125 1.40625,-0.09375 0.5,-0.15625 1,-0.296875 1.5,-0.421875 0.53125,-0.15625 1.03125,-0.234375 1.5,-0.234375 0.46875,-0.03125 0.875,0.140625 1.21875,0.515625 1.125,-0.125 2.39063,-0.234375 3.79688,-0.328125 1.40621,-0.09375 2.81253,0.03125 4.21874,0.375 0.40625,-0.21875 0.79688,-0.453125 1.17188,-0.703125 0.375,-0.25 0.73441,-0.5 1.07812,-0.75 0.15625,-0.65625 0.10938,-1.171875 -0.14062,-1.546875 -0.21875,-0.40625 -0.51566,-0.78125 -0.89062,-1.125 -0.0312,-0.34375 -0.14063,-0.671875 -0.32813,-0.984375 -0.1875,-0.3125 -0.40625,-0.625 -0.65625,-0.9375 L 251.71875,12.75 c -0.21875,-0.34375 -0.39063,-0.703125 -0.51563,-1.078125 -1.54684,-0.445312 -3.04101,-0.689453 -4.48242,-0.730469 z m -38.0332,0.07422 c -0.96875,0.84375 -2.0625,1.625 -3.28125,2.34375 -1.1875,0.71875 -2.375,1.421875 -3.5625,2.109375 -1.1875,0.6875 -2.32816,1.40625 -3.42187,2.15625 -1.09375,0.75 -2.03129,1.578125 -2.8125,2.484375 -0.34375,0.0625 -0.62501,0.1875 -0.84376,0.375 -0.21871,0.15625 -0.42187,0.34375 -0.60937,0.5625 C 194,21.265625 193.82812,21.5 193.64062,21.75 c -0.15621,0.21875 -0.37503,0.4375 -0.65624,0.65625 -1.71875,1.34375 -3.20313,2.90625 -4.45313,4.6875 -1.21875,1.75 -2.3125,3.65625 -3.28125,5.71875 0.0625,0.4375 0.0469,0.796875 -0.0469,1.078125 -0.0937,0.28125 -0.14062,0.59375 -0.14062,0.9375 0.0625,0.0625 0.14063,0.125 0.23438,0.1875 0.0937,0.03125 0.12499,0.125 0.0937,0.28125 0.15625,3.28125 1.03129,5.859375 2.625,7.734375 1.59375,1.875 3.79688,2.875 6.60938,3 0.40625,0.03125 0.84375,-0.01563 1.3125,-0.140625 0.46875,-0.125 0.92188,-0.1875 1.35938,-0.1875 h 1.26562 c 0.5,0 1.0625,-0.04687 1.6875,-0.140625 0.0937,-0.0625 0.15625,-0.140625 0.1875,-0.234375 0.0625,-0.09375 0.17191,-0.125 0.32812,-0.09375 0.40625,-0.03125 0.78129,-0.07813 1.125,-0.140625 l 1.03126,-0.1875 c 0.34371,-0.0625 0.70312,-0.109375 1.07812,-0.140625 0.375,-0.03125 0.82813,-0.04687 1.35938,-0.04687 1.21871,-0.46875 2.45312,-0.875 3.70312,-1.21875 1.28125,-0.375 2.54688,-0.71875 3.79688,-1.03125 1.24996,-0.34375 2.46878,-0.6875 3.65624,-1.03125 1.1875,-0.375 2.29688,-0.828125 3.32813,-1.359375 1.0625,-0.53125 2.01566,-1.15625 2.85937,-1.875 0.84375,-0.75 1.56251,-1.65625 2.15626,-2.71875 0.0625,-0.4375 0.0312,-0.8125 -0.0938,-1.125 -0.12496,-0.3125 -0.15624,-0.71875 -0.0937,-1.21875 -0.53125,-0.25 -0.98438,-0.5625 -1.35938,-0.9375 l -1.125,-1.125 c -0.375,-0.40625 -0.76563,-0.78125 -1.17188,-1.125 -0.40621,-0.375 -0.89062,-0.6875 -1.45312,-0.9375 -0.59375,-0.34375 -1.23438,-0.6875 -1.92188,-1.03125 -0.68746,-0.375 -1.35937,-0.734375 -2.01562,-1.078125 -0.65625,-0.34375 -1.28125,-0.6875 -1.875,-1.03125 -0.59375,-0.34375 -1.09375,-0.671875 -1.5,-0.984375 l -3.89062,2.578125 c -0.0625,0.3125 -0.15626,0.578125 -0.28126,0.796875 -0.12496,0.21875 -0.20312,0.5 -0.23437,0.84375 0.125,0.0625 0.20316,0.0625 0.23437,0 0.0625,-0.0625 0.0938,-0.125 0.0938,-0.1875 l 0.0937,-0.1875 c 0.0312,-0.0625 0.12501,-0.0625 0.28126,0 0.21871,0.15625 0.32812,0.359375 0.32812,0.609375 0,0.25 -0.10941,0.46875 -0.32812,0.65625 0.0625,0.75 0.25,1.359375 0.5625,1.828125 0.34371,0.46875 0.76562,0.84375 1.26562,1.125 -0.125,0.15625 -0.29691,0.3125 -0.51562,0.46875 -0.1875,0.125 -0.1875,0.28125 0,0.46875 0.43746,0.125 0.9375,0.296875 1.5,0.515625 -1.90625,0.5 -3.78129,1 -5.625,1.5 -1.84375,0.46875 -3.82813,0.8125 -5.95313,1.03125 -0.15625,0.0625 -0.25,0.171875 -0.28125,0.328125 -0.0312,0.15625 -0.10938,0.28125 -0.23438,0.375 -1.03121,-0.21875 -2.06253,-0.28125 -3.09374,-0.1875 -1.03125,0.0625 -2.14063,0.0625 -3.32813,0 -0.0625,-0.15625 -0.15625,-0.296875 -0.28125,-0.421875 -0.0937,-0.125 -0.17188,-0.265625 -0.23438,-0.421875 0.59375,-1.03125 1.31251,-2.078125 2.15626,-3.140625 0.84371,-1.09375 1.75003,-2.140625 2.71874,-3.140625 0.96875,-1.03125 1.96879,-2 3,-2.90625 1.0625,-0.90625 2.10938,-1.734375 3.14063,-2.484375 1.03125,-0.75 2.0625,-1.40625 3.09375,-1.96875 1.0625,-0.59375 2.09375,-1.140625 3.09375,-1.640625 1.03125,-0.5 2,-0.96875 2.90625,-1.40625 0.9375,-0.46875 1.78125,-0.953125 2.53125,-1.453125 -0.0625,-0.25 -0.0625,-0.421875 0,-0.515625 0.0937,-0.125 0.14063,-0.28125 0.14063,-0.46875 -1e-5,-0.21875 -0.10938,-0.328125 -0.32813,-0.328125 -0.21875,0 -0.32812,-0.109375 -0.32813,-0.328125 0.28125,0 0.42188,-0.07813 0.42188,-0.234375 0,-0.15625 -0.0312,-0.328125 -0.0937,-0.515625 -0.0625,-0.1875 -0.10938,-0.359375 -0.14063,-0.515625 0,-0.15625 0.10938,-0.234375 0.32813,-0.234375 -0.21875,-0.5625 -0.54691,-1 -0.98437,-1.3125 -0.40625,-0.34375 -0.85938,-0.625 -1.35938,-0.84375 -0.46875,-0.25 -0.9375,-0.484375 -1.40625,-0.703125 -0.4375,-0.25 -0.79688,-0.671875 -1.07813,-1.265625 -0.21871,-0.0625 -0.43753,-0.04687 -0.65624,0.04687 -0.1875,0.0625 -0.45313,-0.01563 -0.79688,-0.234375 z m -38.8125,0.140625 -0.5625,0.796875 c -0.8125,1.25 -1.625,2.328125 -2.4375,3.234375 -0.78125,0.875 -1.6875,1.546875 -2.71875,2.015625 L 163.3125,17.0625 c -0.21875,0 -0.40625,0.03125 -0.5625,0.09375 -0.125,0.03125 -0.25,0.07813 -0.375,0.140625 l -0.51562,-0.04687 -0.32813,0.46875 c -0.5,0.59375 -0.92188,1.203125 -1.26563,1.828125 -0.31246,0.625 -0.60937,1.25 -0.89062,1.875 -0.25,0.53125 -0.51563,1.046875 -0.79688,1.546875 -0.24996,0.5 -0.59378,1.0625 -1.03124,1.6875 -0.0625,0.1875 -0.0938,0.359375 -0.0938,0.515625 0,0.125 0.0156,0.25 0.0469,0.375 -0.28125,0.625 -0.57816,1.234375 -0.89062,1.828125 l -0.84376,1.78125 c -0.90621,1.84375 -1.78125,3.640625 -2.625,5.390625 -0.81246,1.75 -1.60937,3.578125 -2.39062,5.484375 l -0.0469,0.984375 -0.60937,0.46875 0.70313,0.703125 c 0.12496,0.15625 0.21878,0.4375 0.28124,0.84375 0.0625,0.21875 0.10938,0.4375 0.14063,0.65625 0.0312,0.1875 0.10941,0.40625 0.23437,0.65625 l 0.28126,0.375 c 0.31246,0.15625 0.57812,0.34375 0.79687,0.5625 0.25,0.1875 0.5625,0.46875 0.9375,0.84375 l 0.60937,0.04687 c 0.21875,0 0.40629,-0.01563 0.5625,-0.04687 0.1875,-0.03125 0.48438,-0.09375 0.89063,-0.1875 l 0.70313,-0.09375 0.14062,-0.609375 c 0.125,-0.125 0.34375,-0.25 0.65625,-0.375 0.21875,-0.09375 0.4375,-0.203125 0.65625,-0.328125 0.25,-0.125 0.45313,-0.3125 0.60938,-0.5625 l 0.1875,-0.609375 c 0,-0.46875 0.0625,-0.9375 0.1875,-1.40625 0.15625,-0.468755 0.31257,-0.95313 0.46878,-1.45313 0.125,-0.3125 0.23438,-0.625 0.32813,-0.9375 0.125,-0.3125 0.21875,-0.640625 0.28125,-0.984375 0.0625,-0.0625 0.14063,-0.125 0.23438,-0.1875 0.0937,-0.0625 0.17187,-0.140625 0.23437,-0.234375 L 160.6875,37.734375 160.5,37.21875 c -0.0312,-0.0625 -0.0312,-0.15625 0,-0.28125 0.0625,-0.125 0.125,-0.21875 0.1875,-0.28125 l 0.60938,-0.09375 0.1875,-0.609375 0.1875,-0.65625 c 0.0937,-0.25 0.20312,-0.5 0.32812,-0.75 0.0312,0.375 0.15625,0.734375 0.375,1.078125 -0.125,0.46875 -0.0781,0.859375 0.14062,1.171875 0.21875,0.3125 0.40629,0.5625 0.5625,0.75 0.0625,0.0625 0.12504,0.140625 0.1875,0.234375 0.0937,0.0625 0.14063,0.125 0.14063,0.1875 l 0.14063,0.515625 0.51562,0.04687 c 0.59375,0.09375 1.15625,0.140625 1.6875,0.140625 0.8125,0 1.5625,-0.0625 2.25,-0.1875 0.6875,-0.15625 1.39063,-0.328125 2.10938,-0.515625 0.49996,-0.125 1,-0.234375 1.5,-0.328125 0.49996,-0.125 1.14062,-0.109375 1.92187,0.04687 0.0625,1 -0.0625,1.703125 -0.375,2.109375 -0.3125,0.375 -0.9375,0.6875 -1.875,0.9375 l -1.54687,0.421875 0.9375,1.078125 c 0.12496,0.125 0.23437,0.25 0.32812,0.375 0.0937,0.09375 0.20316,0.1875 0.32812,0.28125 0.34375,0.3125 0.56251,0.5625 0.65626,0.75 0.12496,0.1875 0.14062,0.40625 0.0469,0.65625 L 171.84375,45 l 0.60937,0.28125 c 0.15625,0.0625 0.35938,0.1875 0.60938,0.375 0.15625,0.125 0.32816,0.25 0.51562,0.375 0.21875,0.125 0.54688,0.234375 0.98438,0.328125 0.78125,-0.03125 1.53125,-0.203125 2.25,-0.515625 0.71875,-0.34375 1.35938,-0.765625 1.92188,-1.265625 0.59371,-0.53125 1.09375,-1.109375 1.5,-1.734375 0.43746,-0.65625 0.8125,-1.390625 1.125,-2.203125 0.0937,-0.71875 0.0937,-1.40625 0,-2.0625 -0.0625,-0.6875 -0.15626,-1.34375 -0.28126,-1.96875 -0.0625,-0.25 -0.10937,-0.46875 -0.14062,-0.65625 0,-0.1875 -0.0312,-0.390625 -0.0937,-0.609375 0.875,-0.40625 1.65625,-0.921875 2.34375,-1.546875 0.71875,-0.625 1.25,-1.265625 1.59375,-1.921875 l 0.4687,-0.890625 -0.84375,-0.328125 c -0.0625,-0.03125 -0.14066,-0.07813 -0.23437,-0.140625 L 183.9375,30.28125 C 183.78125,30.125 183.57812,29.96875 183.32812,29.8125 183.10941,29.625 182.75,29.515625 182.25,29.484375 c -0.125,-0.09375 -0.23441,-0.1875 -0.32812,-0.28125 -0.0937,-0.09375 -0.17188,-0.1875 -0.23438,-0.28125 l -0.1875,-0.5625 -0.60938,0.04687 c -0.49996,0.03125 -0.9375,0.125 -1.3125,0.28125 -0.0625,-0.03125 -0.25,-0.04687 -0.5625,-0.04687 -0.31246,-0.75 -0.5625,-1.53125 -0.75,-2.34375 -0.18746,-0.84375 -0.35937,-1.71875 -0.51562,-2.625 -0.125,-0.625 -0.26563,-1.25 -0.42188,-1.875 C 177.20316,21.140625 177.0625,20.5 176.90625,19.875 c -0.0312,-0.78125 -0.0937,-1.484375 -0.1875,-2.109375 -0.0937,-0.65625 -0.20313,-1.3125 -0.32813,-1.96875 l -0.1875,-0.84375 c -0.0312,-0.28125 -0.0781,-0.59375 -0.14062,-0.9375 L 175.82812,13.59375 C 175.48441,13.25 175,12.984375 174.375,12.796875 c -0.625,-0.21875 -1.26563,-0.40625 -1.92188,-0.5625 C 172.07816,12.109375 171.71875,12 171.375,11.90625 171.03125,11.8125 170.78125,11.71875 170.625,11.625 Z M 80.34375,20.48437 c 0.71875,0.25 1.40625,0.734375 2.0625,1.453125 0.65625,0.6875 1.0625,1.609375 1.21875,2.765625 -1.28125,0.53125 -2.640625,1.09375 -4.078125,1.6875 -1.4375,0.5625 -2.8125,0.921875 -4.125,1.078125 0.15625,-0.84375 0.421875,-1.5625 0.796875,-2.15625 0.375,-0.625 0.796875,-1.1875 1.265625,-1.6875 0.5,-0.53125 1,-1.03125 1.5,-1.5 0.5,-0.5 0.953125,-1.046875 1.359375,-1.640625 z M 49.734375,22.875 c 0.78125,1.1875 1.46875,2.453125 2.0625,3.796875 0.59375,1.3125 1.296875,2.53125 2.109375,3.65625 0,0.375 0.01563,0.65625 0.04687,0.84375 0.0625,0.1875 0.171875,0.421875 0.328125,0.703125 -0.03125,0.53125 -0.171875,0.9375 -0.421875,1.21875 -0.25,0.28125 -0.453125,0.609375 -0.609375,0.984375 -1.21875,0.625 -2.390625,1.25 -3.515625,1.875 -1.125,0.59375 -2.34375,0.953125 -3.65625,1.078125 -0.25,0 -0.375,0.140625 -0.375,0.421875 -0.71875,0 -1.53125,0.07813 -2.4375,0.234375 -0.90625,0.15625 -1.8125,0.28125 -2.71875,0.375 -0.90625,0.0625 -1.796875,0.04687 -2.671875,-0.04687 -0.84375,-0.125 -1.578125,-0.453125 -2.203125,-0.984375 0.03125,-0.90625 0.1875,-1.6875 0.46875,-2.34375 0.3125,-0.6875 0.671875,-1.328125 1.078125,-1.921875 0.40625,-0.59375 0.8125,-1.171875 1.21875,-1.734375 0.4375,-0.59375 0.8125,-1.25 1.125,-1.96875 0.1875,-0.0625 0.296875,-0.07813 0.328125,-0.04687 0.03125,0.03125 0.125,0 0.28125,-0.09375 0.875,-1.09375 1.84375,-2.046875 2.90625,-2.859375 1.09375,-0.8125 2.1875,-1.65625 3.28125,-2.53125 0.1875,0.15625 0.390625,0.28125 0.609375,0.375 0.25,0.09375 0.484375,0.140625 0.703125,0.140625 0.25,0 0.46875,-0.04687 0.65625,-0.140625 0.1875,-0.125 0.328125,-0.34375 0.421875,-0.65625 0.21875,0.21875 0.421875,0.25 0.609375,0.09375 0.1875,-0.15625 0.3125,-0.3125 0.375,-0.46875 z m 251.906245,0 c 0.78125,1.1875 1.46879,2.453125 2.0625,3.796875 0.59375,1.3125 1.29688,2.53125 2.10938,3.65625 0,0.375 0.0156,0.65625 0.0469,0.84375 0.0625,0.1875 0.17187,0.421875 0.32812,0.703125 -0.0312,0.53125 -0.17188,0.9375 -0.42188,1.21875 -0.24996,0.28125 -0.45312,0.609375 -0.60937,0.984375 -1.21875,0.625 -2.39063,1.25 -3.51563,1.875 -1.12496,0.59375 -2.34378,0.953125 -3.65624,1.078125 -0.25,0 -0.375,0.140625 -0.375,0.421875 -0.71875,0 -1.53129,0.07813 -2.4375,0.234375 -0.90625,0.15625 -1.81251,0.28125 -2.71876,0.375 -0.90621,0.0625 -1.79687,0.04687 -2.67187,-0.04687 -0.84375,-0.125 -1.57813,-0.453125 -2.20313,-0.984375 0.0312,-0.90625 0.18751,-1.6875 0.46876,-2.34375 0.31246,-0.6875 0.67187,-1.328125 1.07812,-1.921875 0.40625,-0.59375 0.8125,-1.171875 1.21875,-1.734375 0.4375,-0.59375 0.8125,-1.25 1.125,-1.96875 0.1875,-0.0625 0.29688,-0.07813 0.32813,-0.04687 0.0312,0.03125 0.12503,0 0.28124,-0.09375 0.875,-1.09375 1.84376,-2.046875 2.90626,-2.859375 1.09371,-0.8125 2.18753,-1.65625 3.28124,-2.53125 0.1875,0.15625 0.39063,0.28125 0.60938,0.375 0.25,0.09375 0.48441,0.140625 0.70312,0.140625 0.25,0 0.46876,-0.04687 0.65626,-0.140625 0.18746,-0.125 0.32812,-0.34375 0.42187,-0.65625 0.21875,0.21875 0.42191,0.25 0.60937,0.09375 0.1875,-0.15625 0.31254,-0.3125 0.375,-0.46875 z m 73.59376,0 c 0.78121,1.1875 1.46875,2.453125 2.0625,3.796875 0.59371,1.3125 1.29687,2.53125 2.10937,3.65625 0,0.375 0.0157,0.65625 0.0469,0.84375 0.0625,0.1875 0.17188,0.421875 0.32813,0.703125 -0.0312,0.53125 -0.17191,0.9375 -0.42187,1.21875 -0.25,0.28125 -0.45313,0.609375 -0.60938,0.984375 -1.21875,0.625 -2.39066,1.25 -3.51562,1.875 -1.125,0.59375 -2.34376,0.953125 -3.65626,1.078125 -0.24996,0 -0.37499,0.140625 -0.375,0.421875 -0.71871,0 -1.53125,0.07813 -2.4375,0.234375 -0.90621,0.15625 -1.81253,0.28125 -2.71874,0.375 -0.90625,0.0625 -1.79688,0.04687 -2.67188,-0.04687 -0.84375,-0.125 -1.57816,-0.453125 -2.20312,-0.984375 0.0312,-0.90625 0.18753,-1.6875 0.46874,-2.34375 0.3125,-0.6875 0.67188,-1.328125 1.07813,-1.921875 0.40625,-0.59375 0.8125,-1.171875 1.21875,-1.734375 0.4375,-0.59375 0.8125,-1.25 1.125,-1.96875 0.1875,-0.0625 0.29691,-0.07813 0.32812,-0.04687 0.0312,0.03125 0.12501,0 0.28126,-0.09375 0.87496,-1.09375 1.84378,-2.046875 2.90624,-2.859375 1.09375,-0.8125 2.18751,-1.65625 3.28126,-2.53125 0.18746,0.15625 0.39062,0.28125 0.60937,0.375 0.25,0.09375 0.48438,0.140625 0.70313,0.140625 0.24996,0 0.46878,-0.04687 0.65624,-0.140625 0.1875,-0.125 0.32813,-0.34375 0.42188,-0.65625 0.21875,0.21875 0.42188,0.25 0.60938,0.09375 0.18746,-0.15625 0.3125,-0.3125 0.375,-0.46875 z m -205.875,0.421875 c 0.34371,1.21875 0.65625,2.4375 0.9375,3.65625 0.31246,1.1875 0.59378,2.359375 0.84374,3.515625 -1.09371,0.21875 -2.10937,0.375 -3.04687,0.46875 -0.9375,0.09375 -1.95316,0.171875 -3.04687,0.234375 -0.21875,0.03125 -0.43751,0.04687 -0.65626,0.04687 -0.18746,0 -0.39062,0.01563 -0.60937,0.04687 0.40625,-0.6875 0.82813,-1.34375 1.26563,-1.96875 l 0.0469,-0.04687 c 0.46875,-0.875 1.0625,-1.796875 1.78125,-2.765625 0.71875,-0.96875 1.46875,-1.875 2.25,-2.71875 z"
       transform="matrix(0.26458333,0,0,0.26458333,14.115047,19.506417)"
       id="text4487"
       inkscape:connector-curvature="0" />
    <flowRoot
       xml:space="preserve"
       id="flowRoot4495"
       style="font-style:normal;font-variant:normal;font-weight:normal;font-stretch:normal;font-size:48px;line-height:1.25;font-family:'Permanent Marker';-inkscape-font-specification:'Permanent Marker';letter-spacing:0px;word-spacing:0px;fill:#000000;fill-opacity:1;stroke:none"><flowRegion
         id="flowRegion4497"><rect
           id="rect4499"
           width="383.57144"
           height="221.42857"
           x="1027.1428"
           y="322.63715" /></flowRegion><flowPara
         id="flowPara4501" /></flowRoot>  </g>
</svg>
