<?xml version="1.0" encoding="UTF-8" standalone="no"?>
<!-- Created with Inkscape (http://www.inkscape.org/) -->

<svg
   xmlns:dc="http://purl.org/dc/elements/1.1/"
   xmlns:cc="http://creativecommons.org/ns#"
   xmlns:rdf="http://www.w3.org/1999/02/22-rdf-syntax-ns#"
   xmlns:svg="http://www.w3.org/2000/svg"
   xmlns="http://www.w3.org/2000/svg"
   xmlns:sodipodi="http://sodipodi.sourceforge.net/DTD/sodipodi-0.dtd"
   xmlns:inkscape="http://www.inkscape.org/namespaces/inkscape"
   width="456"
   height="47.63715"
   viewBox="0 0 120.65 12.603996"
   version="1.1"
   id="svg8"
   inkscape:version="0.92.1 r15371"
   sodipodi:docname="logo.svg">
  <defs
     id="defs2" />
  <sodipodi:namedview
     id="base"
     pagecolor="#ffffff"
     bordercolor="#666666"
     borderopacity="1.0"
     inkscape:pageopacity="0.0"
     inkscape:pageshadow="2"
     inkscape:zoom="1.4"
     inkscape:cx="352.70569"
     inkscape:cy="-136.79571"
     inkscape:document-units="mm"
     inkscape:current-layer="layer1"
     showgrid="false"
     inkscape:showpageshadow="false"
     showborder="false"
     inkscape:window-width="1920"
     inkscape:window-height="1017"
     inkscape:window-x="-8"
     inkscape:window-y="-8"
     inkscape:window-maximized="1"
     units="px">
    <sodipodi:guide
       position="0,0"
       orientation="0,456"
       id="guide4495"
       inkscape:locked="false" />
    <sodipodi:guide
       position="120.65,0"
       orientation="-47.63715,0"
       id="guide4497"
       inkscape:locked="false" />
    <sodipodi:guide
       position="120.65,12.603996"
       orientation="0,-456"
       id="guide4499"
       inkscape:locked="false" />
    <sodipodi:guide
       position="0,12.603996"
       orientation="47.63715,0"
       id="guide4501"
       inkscape:locked="false" />
  </sodipodi:namedview>
  <metadata
     id="metadata5">
    <rdf:RDF>
      <cc:Work
         rdf:about="">
        <dc:format>image/svg+xml</dc:format>
        <dc:type
           rdf:resource="http://purl.org/dc/dcmitype/StillImage" />
        <dc:title></dc:title>
      </cc:Work>
    </rdf:RDF>
  </metadata>
  <g
     inkscape:label="Layer 1"
     inkscape:groupmode="layer"
     id="layer1"
     transform="translate(-14.115047,-19.506417)">
    <path
       style="font-style:normal;font-variant:normal;font-weight:normal;font-stretch:normal;font-size:12.69999981px;line-height:1.25;font-family:'Permanent Marker';-inkscape-font-specification:'Permanent Marker';letter-spacing:0px;word-spacing:0px;fill:#000000;fill-opacity:1;stroke:none;stroke-width:0.26458332"
       d="m 35.303565,19.332784 -0.173633,0.07441 c -0.140559,0.05788 -0.243912,0.09922 -0.310058,0.124024 -0.05788,0.0248 -0.111621,0.04547 -0.161231,0.06201 -0.04961,0.0083 -0.103352,0.0124 -0.16123,0.0124 -0.05788,0 -0.144694,0.0041 -0.260449,0.0124 v 0.260449 l -0.186035,0.0124 0.04961,0.223242 c 0.0083,0.04134 -0.0124,0.107487 -0.06201,0.198437 -0.01654,0.04134 -0.03307,0.08682 -0.04961,0.136426 -0.01654,0.04961 -0.02481,0.144694 -0.02481,0.285254 0.03307,0.06615 0.05788,0.136426 0.07441,0.21084 0.02481,0.06615 0.05374,0.16123 0.08682,0.285254 l 0.111621,0.07441 c 0.04134,0.03307 0.07855,0.05788 0.111621,0.07441 0.04134,0.0083 0.107487,0.03307 0.198437,0.07441 l 0.148828,0.06201 0.09922,-0.09922 c 0.01654,0 0.04134,0.0041 0.07441,0.0124 h 0.09922 l 0.173633,0.02481 c 0.05788,0 0.119889,-0.0124 0.186035,-0.03721 l 0.124023,-0.08682 c 0.02481,-0.04961 0.03721,-0.07855 0.03721,-0.08682 l 0.0124,-0.02481 c 0.0083,-0.0083 0.02067,-0.01654 0.03721,-0.0248 0.01654,-0.0083 0.04961,-0.03307 0.09922,-0.07441 0.140559,-0.09922 0.264583,-0.194304 0.37207,-0.285254 0.0248,-0.05788 0.04547,-0.111621 0.06201,-0.161231 0.0248,-0.04961 0.05374,-0.14056 0.08682,-0.272851 -0.01654,-0.09922 -0.07028,-0.19017 -0.16123,-0.272852 -0.09095,-0.08268 -0.181902,-0.173633 -0.272852,-0.272851 -0.05788,-0.05788 -0.128158,-0.124024 -0.21084,-0.198438 -0.07441,-0.07441 -0.119889,-0.128157 -0.136426,-0.16123 z m 2.567285,0.111621 c -0.09922,0.03307 -0.235644,0.09509 -0.409277,0.186035 -0.04961,0.09095 -0.07028,0.194304 -0.06201,0.310059 0.0083,0.115755 0.0083,0.239779 0,0.37207 -0.0083,0.07441 -0.0124,0.165365 -0.0124,0.272852 0.0083,0.107487 0.0041,0.181901 -0.0124,0.223242 l -0.04961,0.16123 0.173633,0.06201 c 0.132292,0.05788 0.227376,0.103353 0.285254,0.136426 0.06615,0.02481 0.115755,0.04961 0.148828,0.07441 0.04134,0.02481 0.08268,0.05788 0.124024,0.09922 0.04134,0.03307 0.107487,0.08682 0.198437,0.16123 l 0.186035,-0.173633 0.124024,0.111622 0.124023,-0.186036 c 0.03307,-0.03307 0.09508,-0.06615 0.186035,-0.09922 0.04134,-0.01654 0.08682,-0.03307 0.136426,-0.04961 0.04961,-0.0248 0.119889,-0.08268 0.21084,-0.173633 0.01654,-0.07441 0.04134,-0.144694 0.07441,-0.210839 0.04134,-0.06615 0.09095,-0.148829 0.148828,-0.248047 l -0.0124,-0.136426 c -0.01654,-0.04961 -0.03307,-0.09095 -0.04961,-0.124023 -0.0083,-0.04134 -0.03307,-0.103353 -0.07441,-0.186036 l -0.04961,-0.148828 -0.148828,-0.0124 c -0.03307,-0.01654 -0.06615,-0.05788 -0.09922,-0.124024 l -0.124023,-0.124023 c -0.03307,-0.04961 -0.07855,-0.08682 -0.136426,-0.111621 l -0.148828,-0.02481 c -0.04961,0.01654 -0.08268,0.02894 -0.09922,0.03721 h -0.03721 -0.02481 c -0.01654,-0.0083 -0.05374,-0.01654 -0.111621,-0.0248 l -0.223242,-0.02481 c -0.07441,-0.0083 -0.152962,-0.01654 -0.235645,-0.02481 z m -1.513086,2.579688 c -0.124023,0.08268 -0.219108,0.157096 -0.285253,0.223242 -0.06615,0.06615 -0.136426,0.169499 -0.21084,0.310058 -0.115755,0.01654 -0.202572,0.02481 -0.260449,0.02481 -0.04961,0 -0.11989,0.0041 -0.21084,0.0124 -0.115756,0.157097 -0.214974,0.285254 -0.297657,0.384473 -0.08268,0.09922 -0.214974,0.190169 -0.396875,0.272851 v 0.161231 c -0.08268,0.02481 -0.152962,0.05788 -0.210839,0.09922 -0.05788,0.04134 -0.115756,0.08682 -0.173633,0.136425 -0.04961,0.04961 -0.107487,0.09509 -0.173633,0.136426 -0.05788,0.04134 -0.128158,0.07028 -0.21084,0.08682 -0.04134,0.07441 -0.09095,0.136425 -0.148828,0.186035 -0.04961,0.04961 -0.107487,0.09922 -0.173633,0.148828 -0.05788,0.04134 -0.115755,0.08682 -0.173633,0.136426 -0.04961,0.04961 -0.09095,0.111621 -0.124023,0.186035 -0.04961,0.01654 -0.09508,0.04547 -0.136426,0.08682 l -0.09922,0.124024 c -0.0248,0.04134 -0.05788,0.07441 -0.09922,0.09922 -0.03307,0.02481 -0.07855,0.02481 -0.136426,0 -0.264583,0.314193 -0.541569,0.640788 -0.830957,0.979786 -0.28112,0.338997 -0.533301,0.702799 -0.756543,1.091406 -0.223242,0.388607 -0.392741,0.81442 -0.508496,1.277441 -0.115755,0.454753 -0.136426,0.963249 -0.06201,1.525488 0.107487,0.272852 0.243913,0.529167 0.409277,0.768946 0.173633,0.239778 0.376205,0.446484 0.607715,0.620117 0.239779,0.173633 0.508496,0.30179 0.806153,0.384473 0.297656,0.08268 0.628385,0.09922 0.992187,0.04961 0.380339,0.08268 0.711068,0.103353 0.992188,0.06201 0.281119,-0.04134 0.570507,-0.115756 0.868164,-0.223243 0.124023,0.01654 0.264583,0.0124 0.421679,-0.0124 0.157097,-0.03307 0.314193,-0.07441 0.471289,-0.124023 0.157097,-0.04961 0.310059,-0.103353 0.458887,-0.16123 0.148828,-0.06615 0.276986,-0.132292 0.384473,-0.198438 0.14056,-0.03307 0.276985,-0.06201 0.409277,-0.08682 0.132292,-0.03307 0.256315,-0.08268 0.37207,-0.148829 0.165365,-0.140559 0.347266,-0.260449 0.545704,-0.359667 0.198437,-0.107487 0.363802,-0.243913 0.496093,-0.409278 0.107487,-0.06615 0.202572,-0.16123 0.285254,-0.285254 0.08268,-0.132291 0.148828,-0.272851 0.198438,-0.421679 0.04961,-0.148829 0.08268,-0.301791 0.09922,-0.458887 0.01654,-0.165365 0.01654,-0.318327 0,-0.458887 -0.01654,-0.107487 -0.04547,-0.214974 -0.08682,-0.322461 -0.04134,-0.107487 -0.08682,-0.214974 -0.136426,-0.322461 -0.04134,-0.107487 -0.07855,-0.214974 -0.111621,-0.322461 -0.02481,-0.115755 -0.02894,-0.23151 -0.0124,-0.347265 -0.239779,-0.388607 -0.454752,-0.79375 -0.644922,-1.21543 -0.19017,-0.429948 -0.40101,-0.839225 -0.632521,-1.227832 0.03307,-0.04961 0.04548,-0.111621 0.03721,-0.186035 -0.0083,-0.05788 -0.03721,-0.08682 -0.08682,-0.08682 -0.04961,-0.0083 -0.07441,-0.04548 -0.07441,-0.111622 0.09922,-0.04134 0.165365,-0.115755 0.198437,-0.223242 0.03307,-0.115755 0.07028,-0.223242 0.111622,-0.322461 -0.01654,-0.05788 -0.03721,-0.107487 -0.06201,-0.148828 -0.01654,-0.04134 -0.03721,-0.07855 -0.06201,-0.111621 -0.01654,-0.03307 -0.03307,-0.07028 -0.04961,-0.111621 -0.01654,-0.04134 -0.03307,-0.09509 -0.04961,-0.16123 -0.04134,-0.0083 -0.07028,-0.0041 -0.08682,0.0124 -0.0083,0.01654 -0.03307,0.02481 -0.07441,0.02481 -0.01654,-0.09095 -0.05374,-0.161231 -0.111621,-0.21084 -0.05788,-0.04961 -0.115755,-0.09508 -0.173633,-0.136426 -0.05788,-0.04961 -0.111621,-0.09922 -0.16123,-0.148828 -0.04961,-0.05788 -0.07855,-0.136426 -0.08682,-0.235645 -0.115755,-0.115755 -0.243913,-0.177767 -0.384473,-0.186035 -0.140559,-0.01654 -0.272851,-0.05788 -0.396875,-0.124023 z m 66.650196,0 c -0.12402,0.08268 -0.21912,0.157096 -0.28525,0.223242 -0.0662,0.06615 -0.13643,0.169499 -0.21084,0.310058 -0.11576,0.01654 -0.20258,0.02481 -0.26046,0.02481 -0.0496,0 -0.11988,0.0041 -0.21083,0.0124 -0.11576,0.157097 -0.21498,0.285254 -0.29766,0.384473 -0.0827,0.09922 -0.21497,0.190169 -0.39688,0.272851 v 0.161231 c -0.0827,0.02481 -0.15297,0.05788 -0.21083,0.09922 -0.0579,0.04134 -0.11576,0.08682 -0.17364,0.136425 -0.0496,0.04961 -0.10749,0.09509 -0.17363,0.136426 -0.0579,0.04134 -0.12816,0.07028 -0.21084,0.08682 -0.0413,0.07441 -0.091,0.136425 -0.14883,0.186035 -0.0496,0.04961 -0.10749,0.09922 -0.17363,0.148828 -0.0579,0.04134 -0.11576,0.08682 -0.17363,0.136426 -0.0496,0.04961 -0.09096,0.111621 -0.124028,0.186035 -0.04961,0.01654 -0.09509,0.04547 -0.136427,0.08682 l -0.09922,0.124024 c -0.02479,0.04134 -0.05788,0.07441 -0.09922,0.09922 -0.03306,0.02481 -0.07855,0.02481 -0.136425,0 -0.264583,0.314193 -0.541578,0.640788 -0.830955,0.979786 -0.28112,0.338997 -0.533302,0.702799 -0.756545,1.091406 -0.223242,0.388607 -0.392742,0.81442 -0.508497,1.277441 -0.115745,0.454753 -0.136424,0.963249 -0.06201,1.525488 0.107487,0.272852 0.243922,0.529167 0.409276,0.768946 0.173632,0.239778 0.376205,0.446484 0.607716,0.620117 0.239778,0.173633 0.508497,0.30179 0.806153,0.384473 0.297646,0.08268 0.628386,0.09922 0.992192,0.04961 0.38033,0.08268 0.71107,0.103353 0.99219,0.06201 0.28111,-0.04134 0.57051,-0.115756 0.86816,-0.223243 0.12402,0.01654 0.26458,0.0124 0.42168,-0.0124 0.15709,-0.03307 0.3142,-0.07441 0.47129,-0.124023 0.15709,-0.04961 0.31006,-0.103353 0.45888,-0.16123 0.14883,-0.06615 0.277,-0.132292 0.38448,-0.198438 0.14056,-0.03307 0.27698,-0.06201 0.40927,-0.08682 0.1323,-0.03307 0.25632,-0.08268 0.37207,-0.148829 0.16537,-0.140559 0.34727,-0.260449 0.54571,-0.359667 0.19844,-0.107487 0.3638,-0.243913 0.49609,-0.409278 0.10749,-0.06615 0.20257,-0.16123 0.28526,-0.285254 0.0827,-0.132291 0.14883,-0.272851 0.19843,-0.421679 0.0496,-0.148829 0.0827,-0.301791 0.0992,-0.458887 0.0165,-0.165365 0.0165,-0.318327 0,-0.458887 -0.0165,-0.107487 -0.0455,-0.214974 -0.0868,-0.322461 -0.0414,-0.107487 -0.0868,-0.214974 -0.13643,-0.322461 -0.0413,-0.107487 -0.0786,-0.214974 -0.11162,-0.322461 -0.0248,-0.115755 -0.0289,-0.23151 -0.0124,-0.347265 -0.23978,-0.388607 -0.45476,-0.79375 -0.64492,-1.21543 -0.19017,-0.429948 -0.40101,-0.839225 -0.63252,-1.227832 0.0331,-0.04961 0.0455,-0.111621 0.0372,-0.186035 -0.008,-0.05788 -0.0372,-0.08682 -0.0868,-0.08682 -0.0496,-0.0083 -0.0744,-0.04548 -0.0744,-0.111622 0.0992,-0.04134 0.16537,-0.115755 0.19844,-0.223242 0.0331,-0.115755 0.0703,-0.223242 0.11162,-0.322461 -0.0165,-0.05788 -0.0372,-0.107487 -0.062,-0.148828 -0.0165,-0.04134 -0.0372,-0.07855 -0.062,-0.111621 -0.0165,-0.03307 -0.0331,-0.07028 -0.0496,-0.111621 -0.0165,-0.04134 -0.0331,-0.09509 -0.0496,-0.16123 -0.0413,-0.0083 -0.0703,-0.0041 -0.0868,0.0124 -0.008,0.01654 -0.0331,0.0248 -0.0744,0.0248 -0.0165,-0.09095 -0.0538,-0.16123 -0.11162,-0.21084 -0.0579,-0.04961 -0.11576,-0.09508 -0.17364,-0.136425 -0.0579,-0.04961 -0.11162,-0.09922 -0.16123,-0.148829 -0.0496,-0.05788 -0.0786,-0.136425 -0.0868,-0.235644 -0.11575,-0.115755 -0.24392,-0.177767 -0.38448,-0.186035 -0.14056,-0.01654 -0.27285,-0.05788 -0.39687,-0.124024 z m 19.47168,0 c -0.12403,0.08268 -0.21911,0.157096 -0.28526,0.223242 -0.0661,0.06615 -0.13642,0.169499 -0.21084,0.310058 -0.11575,0.01654 -0.20258,0.02481 -0.26044,0.02481 -0.0496,0 -0.11989,0.0041 -0.21084,0.0124 -0.11576,0.157097 -0.21498,0.285254 -0.29766,0.384473 -0.0827,0.09922 -0.21497,0.190169 -0.39688,0.272851 v 0.161231 c -0.0827,0.02481 -0.15296,0.05788 -0.21084,0.09922 -0.0579,0.04134 -0.11576,0.08682 -0.17363,0.136425 -0.0496,0.04961 -0.10749,0.09509 -0.17363,0.136426 -0.0579,0.04134 -0.12816,0.07028 -0.21084,0.08682 -0.0413,0.07441 -0.0909,0.136425 -0.14883,0.186035 -0.0496,0.04961 -0.10749,0.09922 -0.17363,0.148828 -0.0579,0.04134 -0.11576,0.08682 -0.17363,0.136426 -0.0496,0.04961 -0.091,0.111621 -0.12403,0.186035 -0.0496,0.01654 -0.0951,0.04547 -0.13642,0.08682 l -0.0992,0.124024 c -0.0248,0.04134 -0.0579,0.07441 -0.0992,0.09922 -0.0331,0.02481 -0.0786,0.02481 -0.13643,0 -0.26458,0.314193 -0.54157,0.640788 -0.83096,0.979786 -0.2811,0.338997 -0.53329,0.702799 -0.75654,1.091406 -0.19301,0.335988 -0.34364,0.701341 -0.4563,1.092956 -0.0689,-0.04533 -0.13283,-0.09459 -0.18862,-0.150378 l -0.29766,-0.297656 c -0.0992,-0.107487 -0.20258,-0.206706 -0.31005,-0.297657 -0.10749,-0.09922 -0.23565,-0.181901 -0.38448,-0.248047 -0.15709,-0.09095 -0.3266,-0.181901 -0.50849,-0.272851 -0.1819,-0.09922 -0.35967,-0.194303 -0.5333,-0.285254 -0.17364,-0.09095 -0.339,-0.181901 -0.4961,-0.272852 -0.15709,-0.09095 -0.28939,-0.177766 -0.39687,-0.260449 l -1.0294,0.682129 c -0.0165,0.08268 -0.0414,0.152962 -0.0744,0.21084 -0.0331,0.05788 -0.0537,0.132292 -0.062,0.223242 0.0331,0.01654 0.0537,0.01654 0.062,0 0.0165,-0.01654 0.0248,-0.03307 0.0248,-0.04961 l 0.0248,-0.04961 c 0.008,-0.01654 0.0331,-0.01654 0.0744,0 0.0579,0.04134 0.0868,0.09509 0.0868,0.161231 0,0.06615 -0.0289,0.124023 -0.0868,0.173633 0.0165,0.198437 0.0662,0.359668 0.14883,0.483691 0.091,0.124024 0.20257,0.223242 0.33486,0.297656 -0.0331,0.04134 -0.0786,0.08268 -0.13642,0.124024 -0.0496,0.03307 -0.0496,0.07441 0,0.124023 0.11575,0.03307 0.24805,0.07855 0.39687,0.136426 -0.50435,0.132292 -1.00045,0.264583 -1.48828,0.396875 -0.48781,0.124023 -1.01286,0.214974 -1.5751,0.272852 -0.0413,0.01654 -0.0661,0.04547 -0.0744,0.08682 -0.008,0.04134 -0.0289,0.07441 -0.062,0.09922 -0.27285,-0.05788 -0.54571,-0.07441 -0.81856,-0.04961 -0.27284,0.01654 -0.56637,0.01654 -0.88056,0 -0.0165,-0.04134 -0.0413,-0.07855 -0.0744,-0.111621 -0.0248,-0.03307 -0.0455,-0.07028 -0.062,-0.111621 0.15709,-0.272851 0.34728,-0.549837 0.57051,-0.830957 0.22324,-0.289388 0.46302,-0.566374 0.71934,-0.830957 0.2563,-0.272851 0.5209,-0.529167 0.79375,-0.768945 0.28111,-0.239779 0.5581,-0.458887 0.83095,-0.657324 0.27285,-0.198438 0.54571,-0.372071 0.81856,-0.520899 0.28112,-0.157096 0.55397,-0.30179 0.81855,-0.434082 0.27285,-0.132292 0.52917,-0.256315 0.76895,-0.37207 0.24804,-0.124024 0.47129,-0.252181 0.66972,-0.384473 -0.0165,-0.06615 -0.0165,-0.111621 0,-0.136426 0.0248,-0.03307 0.0372,-0.07441 0.0372,-0.124023 0,-0.05788 -0.0289,-0.08682 -0.0868,-0.08682 -0.0579,0 -0.0868,-0.02894 -0.0868,-0.08682 0.0744,0 0.11162,-0.02067 0.11162,-0.06201 0,-0.04134 -0.008,-0.08682 -0.0248,-0.136425 -0.0165,-0.04961 -0.029,-0.09509 -0.0372,-0.136426 0,-0.04134 0.0289,-0.06201 0.0868,-0.06201 -0.0579,-0.148828 -0.1447,-0.264583 -0.26045,-0.347265 -0.10748,-0.09095 -0.22738,-0.165365 -0.35967,-0.223243 -0.12402,-0.06615 -0.24805,-0.128157 -0.37207,-0.186035 -0.11576,-0.06615 -0.21085,-0.177767 -0.28525,-0.334863 -0.0579,-0.01654 -0.11576,-0.0124 -0.17364,0.0124 -0.0496,0.01654 -0.11989,-0.0041 -0.21084,-0.06201 -0.25631,0.223242 -0.5457,0.429948 -0.86816,0.620117 -0.31419,0.19017 -0.62839,0.376205 -0.94258,0.558106 -0.31419,0.181901 -0.61598,0.37207 -0.90537,0.570508 -0.28938,0.198437 -0.53744,0.417545 -0.74414,0.657324 -0.0909,0.01654 -0.16537,0.04961 -0.22324,0.09922 -0.0579,0.04134 -0.11162,0.09095 -0.16123,0.148828 -0.0413,0.05788 -0.0868,0.119889 -0.13643,0.186035 -0.0413,0.05788 -0.0992,0.115755 -0.17363,0.173633 -0.45476,0.355536 -0.84751,0.768948 -1.17824,1.240237 -0.32246,0.463021 -0.61185,0.967383 -0.86816,1.513086 0.0165,0.115755 0.0124,0.210839 -0.0124,0.285254 -0.0248,0.07441 -0.0372,0.157096 -0.0372,0.248046 0.0165,0.01654 0.0372,0.03307 0.062,0.04961 0.0248,0.0083 0.0331,0.03307 0.0248,0.07441 0.0413,0.868164 0.27285,1.550293 0.69453,2.046387 0.42167,0.496093 1.00459,0.760677 1.74873,0.79375 0.10749,0.0083 0.22324,-0.0041 0.34726,-0.03721 0.12403,-0.03307 0.24393,-0.04961 0.35967,-0.04961 h 0.33487 c 0.13229,0 0.28112,-0.0124 0.44648,-0.03721 0.0248,-0.01654 0.0413,-0.03721 0.0496,-0.06201 0.0165,-0.0248 0.0455,-0.03307 0.0868,-0.0248 0.10747,-0.0083 0.2067,-0.02067 0.29765,-0.03721 l 0.27285,-0.04961 c 0.0909,-0.01654 0.18604,-0.02894 0.28526,-0.03721 0.0992,-0.0083 0.21912,-0.0124 0.35966,-0.0124 0.32247,-0.124023 0.64906,-0.23151 0.97979,-0.322461 0.339,-0.09922 0.67387,-0.190169 1.00459,-0.272851 0.33073,-0.09095 0.65319,-0.181901 0.96739,-0.272852 0.31418,-0.09922 0.60771,-0.219108 0.88056,-0.359668 0.28112,-0.14056 0.5333,-0.305924 0.75654,-0.496094 0.0692,-0.06151 0.13405,-0.128461 0.19689,-0.19792 0.006,0.152834 0.0174,0.309044 0.0388,0.470772 0.10748,0.272852 0.24391,0.529167 0.40928,0.768945 0.17362,0.239779 0.3762,0.446485 0.60771,0.620118 0.23978,0.173632 0.50851,0.30179 0.80615,0.384472 0.29766,0.08268 0.6284,0.09922 0.99219,0.04961 0.38034,0.08268 0.71108,0.103352 0.99219,0.06201 0.28112,-0.04134 0.57051,-0.115755 0.86816,-0.223242 0.12402,0.01654 0.26459,0.0124 0.42168,-0.0124 0.1571,-0.03307 0.31419,-0.07441 0.47129,-0.124023 0.15709,-0.04961 0.31006,-0.103353 0.45889,-0.161231 0.14882,-0.06615 0.27698,-0.132292 0.38447,-0.198437 0.14055,-0.03307 0.27698,-0.06201 0.40928,-0.08682 0.13229,-0.03307 0.25631,-0.08268 0.37207,-0.148828 0.16536,-0.14056 0.34726,-0.260449 0.5457,-0.359668 0.19844,-0.107487 0.3638,-0.243913 0.49609,-0.409277 0.10749,-0.06615 0.20258,-0.161231 0.28526,-0.285254 0.0827,-0.132292 0.14884,-0.272852 0.19843,-0.42168 0.0496,-0.148828 0.0827,-0.30179 0.0992,-0.458886 0.0165,-0.165365 0.0165,-0.318327 0,-0.458887 -0.0165,-0.107487 -0.0455,-0.214974 -0.0868,-0.322461 -0.0413,-0.107487 -0.0868,-0.214974 -0.13643,-0.322461 -0.0413,-0.107487 -0.0785,-0.214974 -0.11162,-0.322461 -0.0248,-0.115755 -0.0289,-0.23151 -0.0124,-0.347266 -0.23977,-0.388606 -0.45475,-0.79375 -0.64492,-1.215429 -0.19016,-0.429951 -0.40101,-0.839228 -0.63252,-1.227835 0.0331,-0.04961 0.0455,-0.111621 0.0372,-0.186035 -0.008,-0.05788 -0.0372,-0.08682 -0.0868,-0.08682 -0.0496,-0.0083 -0.0744,-0.04548 -0.0744,-0.111622 0.0992,-0.04134 0.16537,-0.115755 0.19844,-0.223242 0.0331,-0.115755 0.0703,-0.223242 0.11162,-0.322461 -0.0165,-0.05788 -0.0372,-0.107487 -0.062,-0.148828 -0.0165,-0.04134 -0.0372,-0.07855 -0.062,-0.111621 -0.0165,-0.03307 -0.0331,-0.07028 -0.0496,-0.111621 -0.0165,-0.04134 -0.0331,-0.09509 -0.0496,-0.16123 -0.0413,-0.0083 -0.0703,-0.0041 -0.0868,0.0124 -0.008,0.01654 -0.0331,0.0248 -0.0744,0.0248 -0.0165,-0.09095 -0.0538,-0.16123 -0.11163,-0.21084 -0.0579,-0.04961 -0.11576,-0.09508 -0.17363,-0.136425 -0.0579,-0.04961 -0.11162,-0.09922 -0.16123,-0.148829 -0.0496,-0.05788 -0.0786,-0.136425 -0.0868,-0.235644 -0.11576,-0.115755 -0.24392,-0.177767 -0.38448,-0.186035 -0.14056,-0.01654 -0.27285,-0.05788 -0.39687,-0.124024 z m -91.963379,0.148828 -0.26045,0.0124 c -0.504362,0.04134 -0.959114,0.107487 -1.364257,0.198437 -0.405144,0.09095 -0.731739,0.169499 -0.979786,0.235645 -0.132291,0.03307 -0.268717,0.07441 -0.409277,0.124023 -0.02481,0.03307 -0.06201,0.05374 -0.111621,0.06201 -0.04961,0.0083 -0.103353,0.0124 -0.16123,0.0124 -0.06615,0.0083 -0.14056,0.02067 -0.223243,0.03721 -0.07441,0.0083 -0.144694,0.04134 -0.210839,0.09922 -0.198438,0.04961 -0.396875,0.107487 -0.595313,0.173633 -0.198437,0.06615 -0.392741,0.132291 -0.58291,0.198437 -0.190169,0.06615 -0.384473,0.132292 -0.58291,0.198438 -0.198438,0.05788 -0.392741,0.111623 -0.58291,0.161233 l -0.124024,0.124023 c -0.0083,0.01654 -0.05374,0.07855 -0.136426,0.186035 l -0.0248,0.148828 c -0.01654,0.04961 -0.0124,0.128158 0.0124,0.235645 0.03307,0.05788 0.04961,0.103353 0.04961,0.136426 0,0.0248 -0.0083,0.04547 -0.0248,0.06201 l -0.07441,0.148829 0.148828,0.09922 c 0.04134,0.04134 0.07855,0.08682 0.111621,0.136426 0.03307,0.04961 0.07028,0.107487 0.111621,0.173633 0.04134,0.06615 0.07855,0.132292 0.111621,0.198437 0.04134,0.05788 0.124024,0.132292 0.248047,0.223243 0.03307,0.0083 0.06201,0.01654 0.08682,0.0248 h 0.07441 c 0.04961,0.01654 0.08268,0.02894 0.09922,0.03721 0.0248,0 0.06201,0.02067 0.111621,0.06201 -0.01654,0.04134 -0.03307,0.09095 -0.04961,0.148828 -0.01654,0.05788 -0.02067,0.124024 -0.0124,0.198438 -0.04961,0.09095 -0.09095,0.181901 -0.124024,0.272851 -0.03307,0.09095 -0.06201,0.181901 -0.08682,0.272852 l -0.07441,0.198437 c -0.01654,0.06615 -0.06615,0.115755 -0.148828,0.148828 -0.04134,-0.03307 -0.08682,-0.06614 -0.136426,-0.09922 -0.04134,-0.03307 -0.08268,-0.07028 -0.124024,-0.111621 l -0.186035,-0.06201 c -0.107487,0.02481 -0.219108,0.05788 -0.334863,0.09922 -0.115755,0.03307 -0.227376,0.08682 -0.334863,0.16123 -0.107487,0.06615 -0.198438,0.157096 -0.272852,0.272852 -0.08268,0.107487 -0.136426,0.260449 -0.16123,0.458886 0.01654,0.231511 0.09095,0.475424 0.223242,0.731739 0.132291,0.256315 0.322461,0.454752 0.570508,0.595312 -0.01654,0.06615 -0.03307,0.128158 -0.04961,0.186035 -0.01654,0.05788 -0.03307,0.11989 -0.04961,0.186035 -0.06615,0.19017 -0.11989,0.384473 -0.161231,0.582911 -0.03307,0.190169 -0.02067,0.429947 0.03721,0.719335 0.03307,0.07442 0.07028,0.14056 0.111621,0.198438 l 0.124024,0.173633 0.09922,0.148828 c 0.03307,0.04134 0.06201,0.08682 0.08682,0.136426 l 0.148828,0.124023 c 0.04134,0.0083 0.08268,0.02067 0.124024,0.03721 0.04134,0.0083 0.08268,0.02067 0.124023,0.03721 0.06615,0.0248 0.128158,0.04961 0.186035,0.07441 0.06615,0.02481 0.165365,0.02894 0.297656,0.0124 0.124024,-0.06615 0.231511,-0.157096 0.322461,-0.272851 0.09095,-0.124022 0.152963,-0.264582 0.186036,-0.421679 0.04134,-0.190169 0.02067,-0.359668 -0.06201,-0.508496 0,-0.0248 0.0041,-0.04961 0.0124,-0.07441 0.0083,-0.0248 0.02067,-0.05374 0.03721,-0.08682 0.01654,-0.04961 0.03307,-0.103353 0.04961,-0.161231 0.0248,-0.05788 0.03721,-0.119889 0.03721,-0.186035 h 0.0124 c 0,-0.0083 0.03721,-0.02067 0.111621,-0.03721 l -0.0124,-0.223242 c 0.04134,-0.05788 0.07441,-0.111621 0.09922,-0.16123 0.03307,-0.05788 0.05788,-0.115756 0.07441,-0.173633 0.01654,-0.04961 0.03307,-0.09509 0.04961,-0.136426 0.01654,-0.04961 0.04961,-0.09509 0.09922,-0.136426 0.07441,-0.02481 0.152962,-0.04961 0.235644,-0.07441 0.08268,-0.02481 0.165365,-0.03721 0.248047,-0.03721 0.01654,0 0.03307,0.0041 0.04961,0.0124 0.01654,0 0.07028,-0.0041 0.161231,-0.0124 0.148828,-0.05788 0.305924,-0.09922 0.471289,-0.124023 0.173633,-0.03307 0.3514,-0.06615 0.533301,-0.09922 l 0.396875,-0.04961 c 0.132291,-0.0248 0.297656,-0.05374 0.496093,-0.08682 0.07442,0 0.148829,-0.0083 0.223243,-0.02481 0.07441,-0.0248 0.144694,-0.04547 0.210839,-0.06201 0.14056,-0.04134 0.289388,-0.05788 0.446485,-0.04961 l 0.124023,0.03721 0.07441,-0.09922 0.58291,-0.744141 0.03721,-0.124023 c -0.0083,-0.09095 -0.02894,-0.161231 -0.06201,-0.21084 -0.03307,-0.05788 -0.07028,-0.09922 -0.111621,-0.124024 l -0.08682,-0.124023 c -0.0248,-0.01654 -0.05374,-0.02894 -0.08682,-0.03721 -0.02481,-0.01654 -0.06615,-0.03721 -0.124024,-0.06201 l 0.07442,-0.198437 -0.136426,-0.0124 0.111621,-0.111621 h -0.483692 c -0.256315,0 -0.504362,0.01654 -0.74414,0.04961 -0.231511,0.0248 -0.463021,0.05788 -0.694531,0.09922 -0.181901,0.02481 -0.355534,0.04961 -0.520899,0.07441 -0.157096,0.01654 -0.318327,0.03307 -0.483691,0.04961 l -0.04961,-0.148828 c -0.01654,-0.06615 -0.01654,-0.128158 0,-0.186036 0.02481,-0.06615 0.05374,-0.115755 0.08682,-0.148828 l 0.06201,-0.124023 c -0.0083,-0.28112 0.07442,-0.525033 0.248047,-0.731738 0.0083,-0.04961 0.0124,-0.09508 0.0124,-0.136426 0.0083,-0.04961 0.01654,-0.09509 0.02481,-0.136426 0.01654,-0.05788 0.02894,-0.115755 0.03721,-0.173633 0.0083,-0.06615 0.0083,-0.132291 0,-0.198437 0.04961,-0.03307 0.08682,-0.05374 0.111621,-0.06201 0.107487,-0.04134 0.194304,-0.08682 0.260449,-0.136426 0.239779,-0.09095 0.520899,-0.173633 0.84336,-0.248047 0.322461,-0.08268 0.65319,-0.148828 0.992187,-0.198437 0.338998,-0.05788 0.669727,-0.09922 0.992188,-0.124024 0.330729,-0.03307 0.620117,-0.04961 0.868164,-0.04961 h 0.173633 c 0.05788,0 0.14056,0.0041 0.248046,0.0124 l 0.161231,-0.08682 0.173633,-0.04961 c 0.05788,-0.01654 0.111621,-0.07441 0.16123,-0.173633 0.05788,-0.190169 0.04134,-0.384472 -0.04961,-0.58291 l -0.09922,-0.09922 c -0.0248,-0.01654 -0.05374,-0.03721 -0.08682,-0.06201 l -0.111621,-0.111621 c -0.05788,-0.05788 -0.119889,-0.115755 -0.186035,-0.173633 -0.06615,-0.06615 -0.14056,-0.119889 -0.223242,-0.16123 -0.14056,-0.264584 -0.425814,-0.396875 -0.855762,-0.396875 -0.04961,0 -0.09922,0.0041 -0.148828,0.0124 -0.04961,0 -0.09922,-0.0041 -0.148828,-0.0124 z m 14.337109,0.0124 c -0.380339,0.04134 -0.698666,0.165364 -0.954981,0.37207 -0.256315,0.206706 -0.487825,0.446485 -0.694531,0.719336 -0.198437,0.264583 -0.396875,0.537435 -0.595312,0.818555 -0.198438,0.28112 -0.425814,0.520898 -0.682129,0.719336 -0.04134,-0.06615 -0.128158,-0.11989 -0.260449,-0.161231 -0.124024,-0.04961 -0.243913,-0.06615 -0.359668,-0.04961 -0.09922,0.223242 -0.181901,0.463021 -0.248047,0.719336 -0.05788,0.248047 -0.111621,0.508496 -0.161231,0.781347 -0.04961,0.264584 -0.107487,0.533301 -0.173633,0.806153 -0.05788,0.272851 -0.140559,0.537435 -0.248046,0.79375 0.0083,0.04961 0.0124,0.115755 0.0124,0.198437 0.0083,0.07441 0.0041,0.148828 -0.0124,0.223242 -0.0083,0.06615 -0.02481,0.124024 -0.04961,0.173633 -0.01654,0.04134 -0.04548,0.04961 -0.08682,0.02481 0.05788,0.148828 0.07028,0.293522 0.03721,0.434082 -0.02481,0.132292 -0.05788,0.272852 -0.09922,0.42168 -0.04134,0.14056 -0.07855,0.289388 -0.111621,0.446484 -0.02481,0.148828 -0.0083,0.314193 0.04961,0.496094 h -0.136425 c 0.04134,0.06615 0.07855,0.136426 0.111621,0.21084 0.03307,0.06614 0.07028,0.09508 0.111621,0.08682 -0.02481,0.06615 -0.03307,0.124023 -0.02481,0.173633 l 0.04961,0.148828 c 0.01654,0.04134 0.02894,0.09095 0.03721,0.148828 0.0083,0.04961 0,0.111621 -0.0248,0.186035 0.107487,-0.0083 0.173633,0.02481 0.198437,0.09922 0.02481,0.06615 0.04961,0.136426 0.07441,0.21084 0.09095,-0.0083 0.157097,0 0.198438,0.0248 0.04134,0.02481 0.07855,0.04961 0.111621,0.07441 0.03307,0.0248 0.07028,0.04547 0.111621,0.06201 0.04134,0.02481 0.103353,0.02894 0.186035,0.0124 0.06615,-0.04134 0.119889,-0.08682 0.161231,-0.136426 0.04961,-0.04961 0.14056,-0.06201 0.272851,-0.03721 0.165365,-0.214973 0.289388,-0.425813 0.37207,-0.632519 0.09095,-0.206706 0.157097,-0.475423 0.198438,-0.806152 0.02481,-0.0083 0.03721,-0.02481 0.03721,-0.04961 0.0083,-0.0248 0.02481,-0.04134 0.04961,-0.04961 0.181901,0.165364 0.343132,0.310058 0.483692,0.434082 0.14056,0.115755 0.293522,0.227376 0.458887,0.334863 0.165364,0.09922 0.359667,0.202572 0.58291,0.310059 0.223242,0.107487 0.51263,0.227376 0.868164,0.359668 0.719336,0.272851 1.310514,0.463021 1.773535,0.570508 0.463021,0.107486 0.843359,0.103352 1.141015,-0.0124 0.08268,-0.0083 0.148829,-0.03721 0.198438,-0.08682 0.05788,-0.04961 0.107487,-0.103353 0.148828,-0.16123 l 0.124024,-0.173633 c 0.04134,-0.05788 0.09095,-0.107487 0.148828,-0.148828 -0.04134,-0.0083 -0.08268,-0.0083 -0.124024,0 -0.03307,0 -0.05374,-0.01654 -0.06201,-0.04961 0.05788,-0.06615 0.09095,-0.152962 0.09922,-0.260449 0.01654,-0.115755 0.0124,-0.235644 -0.0124,-0.359668 -0.0248,-0.124023 -0.06615,-0.248047 -0.124023,-0.37207 -0.05788,-0.124024 -0.132292,-0.231511 -0.223242,-0.322461 -0.223244,-0.0248 -0.401011,-0.04547 -0.533303,-0.06201 -0.132291,-0.01654 -0.256315,-0.03307 -0.37207,-0.04961 -0.115755,-0.02481 -0.248047,-0.05374 -0.396875,-0.08682 -0.14056,-0.04134 -0.338997,-0.09095 -0.595312,-0.148828 -0.256315,-0.05788 -0.458887,-0.107487 -0.607715,-0.148829 -0.14056,-0.04134 -0.272852,-0.09095 -0.396875,-0.148828 -0.115755,-0.06615 -0.243913,-0.144694 -0.384473,-0.235644 -0.132291,-0.09095 -0.322461,-0.21084 -0.570508,-0.359668 0.01654,-0.04961 0.0041,-0.07441 -0.03721,-0.07441 -0.03307,0 -0.04961,-0.01654 -0.04961,-0.04961 0.330729,-0.140559 0.698665,-0.268717 1.103809,-0.384472 0.405143,-0.124024 0.785481,-0.268718 1.141015,-0.434082 0.363802,-0.173633 0.669727,-0.392741 0.917774,-0.657324 0.256315,-0.272852 0.401009,-0.628386 0.434082,-1.066602 0,-0.06615 -0.0041,-0.119889 -0.0124,-0.16123 -0.0083,-0.04961 -0.02067,-0.09095 -0.03721,-0.124024 -0.0083,-0.04134 -0.01654,-0.07855 -0.02481,-0.111621 0,-0.04134 0.0083,-0.08682 0.02481,-0.136426 -0.07441,-0.14056 -0.14056,-0.293522 -0.198438,-0.458887 -0.05788,-0.165364 -0.119889,-0.326595 -0.186035,-0.483691 -0.05788,-0.165364 -0.128159,-0.318327 -0.210841,-0.458887 -0.07441,-0.148828 -0.169499,-0.276985 -0.285254,-0.384472 v -0.186035 l -0.198438,-0.124024 c -0.05788,-0.04961 -0.119889,-0.09508 -0.186035,-0.136426 C 45.973715,22.999744 45.771143,22.801306 45.523096,22.64421 45.27505,22.478845 45.051807,22.325883 44.85337,22.185323 Z m 19.446873,0.03721 c -0.32245,0 -0.65319,0.02067 -0.992187,0.06201 -0.338987,0.04134 -0.67386,0.08268 -1.004589,0.124023 -0.239778,0.03307 -0.471289,0.06615 -0.694531,0.09922 -0.223242,0.0248 -0.442359,0.04547 -0.657323,0.06201 -0.04134,-0.04961 -0.09922,-0.09922 -0.173635,-0.148828 -0.0744,-0.05788 -0.206706,-0.08268 -0.396875,-0.07441 l -0.136425,0.07441 c -0.01654,0.03308 -0.03307,0.06201 -0.04961,0.08682 -0.0083,0.02481 -0.03307,0.08268 -0.07441,0.173633 -0.438216,0.02481 -0.847495,0.06201 -1.227834,0.111621 -0.347255,0.03307 -0.68627,0.06201 -1.016989,0.08682 -0.330729,0.0248 -0.653193,0.03721 -0.967386,0.03721 h -0.210838 c -0.06615,0 -0.132292,-0.0041 -0.198438,-0.0124 h -0.186036 l -0.01291,0.05736 c -0.136268,-0.06661 -0.266255,-0.138058 -0.383958,-0.218591 -0.157091,-0.115757 -0.285258,-0.260451 -0.384476,-0.434083 0.0083,0.04134 0.0041,0.07028 -0.01241,0.08682 -0.01654,0.0083 -0.03721,0.0083 -0.06201,0 -0.01654,-0.0083 -0.04134,-0.01654 -0.07441,-0.02481 -0.02479,-0.0083 -0.04548,-0.0124 -0.06201,-0.0124 v 0.06201 c 0.0083,0.01654 0.01241,0.03721 0.01241,0.06201 -0.06615,0 -0.11163,-0.02894 -0.136424,-0.08682 h -0.08682 c -0.01654,0 -0.02894,-0.0124 -0.03721,-0.03721 -0.421669,0.07441 -0.793758,0.132292 -1.116209,0.173633 -0.322461,0.03307 -0.63252,0.07441 -0.930177,0.124024 -0.297656,0.04134 -0.60358,0.09922 -0.917773,0.173632 -0.314193,0.06615 -0.669727,0.161231 -1.066602,0.285254 -0.223242,0.04961 -0.434083,0.09508 -0.632521,0.136426 -0.198426,0.03307 -0.384471,0.08268 -0.558104,0.148828 -0.165364,0.05788 -0.318327,0.136426 -0.458886,0.235645 -0.14056,0.09095 -0.26045,0.210838 -0.359668,0.359666 0.04961,0.165365 0.08268,0.330729 0.09922,0.496094 0.01654,0.157096 0.04134,0.314193 0.07441,0.471289 0.03307,0.157096 0.07855,0.314193 0.136426,0.471289 0.06615,0.148828 0.169499,0.289388 0.310059,0.42168 -0.06615,0.190169 -0.14056,0.363802 -0.223242,0.520898 l -0.22325,0.446486 c -0.07441,0.148828 -0.144694,0.30179 -0.210839,0.458886 -0.06615,0.157097 -0.128158,0.326595 -0.186036,0.508496 -0.06614,-0.01654 -0.107487,0 -0.124023,0.04961 -0.0083,0.04134 -0.03721,0.06615 -0.08682,0.07441 0.01654,0.06615 0.0124,0.132292 -0.0124,0.198437 -0.01654,0.06615 -0.04548,0.132292 -0.08682,0.198438 -0.03307,0.05788 -0.07028,0.119889 -0.111621,0.186035 -0.03307,0.06615 -0.05788,0.136426 -0.07441,0.21084 -0.02481,0.14056 -0.03307,0.297656 -0.02481,0.471289 0.01654,0.165365 0.03721,0.334863 0.06201,0.508496 0.03307,0.165365 0.06201,0.330729 0.08682,0.496094 0.03307,0.157096 0.05788,0.297656 0.07441,0.421679 0.107486,0.05788 0.173632,0.132292 0.198437,0.223243 0.03307,0.09095 0.08268,0.169498 0.148828,0.235644 0.198438,0.190169 0.446485,0.322461 0.744141,0.396875 0.297657,0.07441 0.607717,0.115755 0.930178,0.124024 0.322451,0.0083 0.640787,-0.0083 0.954979,-0.04961 0.322461,-0.04134 0.599448,-0.08268 0.830959,-0.124023 0.06614,0 0.128156,0.0124 0.186033,0.03721 0.06615,0.01654 0.144704,0.01654 0.235644,0 0.37207,-0.06615 0.706935,-0.119889 1.004591,-0.161231 0.305924,-0.04961 0.578776,-0.119889 0.818555,-0.210839 0.248046,-0.09922 0.467164,-0.235645 0.657322,-0.409278 0.198438,-0.173633 0.376206,-0.42168 0.533302,-0.74414 -0.06614,0.0083 -0.111622,0 -0.136427,-0.0248 -0.02479,-0.03307 -0.04547,-0.07441 -0.06201,-0.124024 -0.0083,-0.04961 -0.02066,-0.103352 -0.03721,-0.16123 -0.0083,-0.05788 -0.03308,-0.107487 -0.07441,-0.148828 -0.09095,0.01654 -0.165367,0 -0.223245,-0.04961 -0.05787,-0.04961 -0.115763,-0.107487 -0.17363,-0.173632 -0.04961,-0.07441 -0.103354,-0.144694 -0.161232,-0.21084 -0.05788,-0.07441 -0.128158,-0.124024 -0.210841,-0.148828 -0.2315,0.07441 -0.48369,0.132291 -0.756541,0.173633 -0.264584,0.03307 -0.500237,0.09922 -0.706933,0.198437 -0.305924,-0.0083 -0.566375,0 -0.781349,0.02481 -0.206705,0.0248 -0.409286,0.04961 -0.607713,0.07441 -0.198438,0.0248 -0.409279,0.04134 -0.632521,0.04961 -0.223242,0.0083 -0.504362,-0.0124 -0.843359,-0.06201 0.09922,-0.264583 0.214974,-0.51263 0.347265,-0.74414 0.132292,-0.239779 0.272852,-0.467155 0.42168,-0.682129 0.115755,0.04134 0.248047,0.06201 0.396875,0.06201 0.157096,0 0.293523,0.02067 0.409279,0.06201 0.09094,-0.04134 0.20257,-0.05374 0.334862,-0.03721 0.140559,0.0083 0.25219,-0.0083 0.334862,-0.04961 0.04134,0.03307 0.07442,0.04961 0.09922,0.04961 h 0.111623 c 0.23151,0.0083 0.446484,-0.01654 0.644922,-0.07441 0.198437,-0.05788 0.380338,-0.132291 0.545703,-0.223242 0.173633,-0.09095 0.338997,-0.190169 0.496093,-0.297656 0.157097,-0.115755 0.318337,-0.227376 0.483691,-0.334863 0.04134,-0.09922 0.05374,-0.194304 0.03721,-0.285254 -0.01654,-0.09095 -0.04548,-0.177767 -0.08682,-0.26045 -0.09921,0.0083 -0.186034,-0.0083 -0.260448,-0.04961 -0.07441,-0.04961 -0.148829,-0.107487 -0.223243,-0.173633 l -0.198437,-0.223242 c -0.06615,-0.07441 -0.136427,-0.136426 -0.210841,-0.186035 0,-0.04134 0.0083,-0.07028 0.02482,-0.08682 0.01654,-0.01654 0.02066,-0.04547 0.01241,-0.08682 -0.405144,0.01654 -0.818555,0.04547 -1.240235,0.08682 -0.421679,0.03307 -0.806161,0.03307 -1.153416,0 -0.02479,-0.06614 -0.03721,-0.144694 -0.03721,-0.235644 0.0083,-0.09095 -0.0083,-0.181901 -0.04961,-0.272852 0.09095,-0.0248 0.177776,-0.04961 0.260448,-0.07441 0.09095,-0.0248 0.1695,-0.06615 0.235646,-0.124023 0.09922,0.01654 0.181901,0.01654 0.248047,0 0.07441,-0.01654 0.140559,-0.03307 0.198437,-0.04961 0.05788,-0.01654 0.11163,-0.02481 0.161229,-0.02481 0.05788,-0.0083 0.119891,0 0.186037,0.02481 0.214974,-0.132292 0.434091,-0.231511 0.657323,-0.297657 0.223242,-0.06615 0.442351,-0.115755 0.657325,-0.148828 0.223242,-0.04134 0.438216,-0.07855 0.644922,-0.111621 0.214974,-0.03307 0.417547,-0.08268 0.607716,-0.148828 0.190159,-0.06615 0.367935,-0.161231 0.5333,-0.285254 0.07662,-0.05473 0.14847,-0.120772 0.21704,-0.19482 0.02875,0.09435 0.05851,0.18641 0.09302,0.269234 0.02479,0.06615 0.04547,0.128158 0.06201,0.186035 0.02479,0.04961 0.04134,0.107487 0.04961,0.173633 v 0.136426 l 0.136427,0.03721 c 0.04133,0.0083 0.08682,0.05788 0.136425,0.148828 l 0.08682,0.09922 c 0.09095,0.04961 0.177768,0.08268 0.26045,0.09922 0.08268,0.0083 0.157097,0.0124 0.223243,0.0124 h 0.148828 0.148828 0.11162 0.223244 c 0.05785,-0.0248 0.136406,-0.03721 0.235625,-0.03721 h 0.148828 0.148828 0.173633 c 0.05788,-0.0083 0.119891,-0.02894 0.186037,-0.06201 0.03306,0.0083 0.08681,0.0124 0.161229,0.0124 0.09922,0 0.202581,-0.0124 0.310057,-0.03721 0.04961,-0.0083 0.09509,-0.0124 0.136427,-0.0124 0.04961,-0.0083 0.103362,-0.0124 0.161229,-0.0124 -0.0083,0.04961 -0.02894,0.107487 -0.06201,0.173633 -0.02479,0.06615 -0.05374,0.132292 -0.08682,0.198437 -0.0496,0.107487 -0.09508,0.214974 -0.136424,0.322461 -0.04134,0.09922 -0.06201,0.202572 -0.06201,0.310059 -0.01654,0.0083 -0.05374,0.03721 -0.11162,0.08682 l -0.136427,0.136426 c -0.05787,0.214974 -0.124024,0.425814 -0.198438,0.63252 -0.0744,0.206705 -0.152961,0.409277 -0.235643,0.607714 -0.148828,0.372071 -0.285255,0.756543 -0.409279,1.153418 -0.124012,0.388607 -0.177765,0.872299 -0.161229,1.451075 0.04134,0.05788 0.07028,0.124023 0.08682,0.198437 0.02479,0.07441 0.04962,0.157096 0.07441,0.248047 0.02479,0.115755 0.05374,0.227376 0.08682,0.334863 0.04134,0.107487 0.09509,0.206706 0.161229,0.297656 0,0.03307 -0.0041,0.09095 -0.01241,0.173633 l 0.136427,0.07441 c 0.0496,0.03307 0.115756,0.06201 0.198438,0.08682 0.01654,0.01654 0.03721,0.02894 0.06201,0.03721 0.02479,0 0.04548,0.0083 0.06201,0.0248 0.04134,0.05788 0.08682,0.09508 0.136427,0.111622 0.04961,0.0248 0.111622,0.05374 0.186036,0.08682 0.0083,0.01654 0.04134,0.05374 0.09922,0.111621 l 0.17363,0.0124 c 0.347266,0 0.595323,-0.09509 0.744141,-0.285254 0.14056,-0.165364 0.186036,-0.396875 0.136427,-0.694531 l -0.124023,-0.148828 c -0.05787,-0.0083 -0.119891,-0.04134 -0.186026,-0.09922 -0.01654,-0.01654 -0.03721,-0.02894 -0.06201,-0.03721 -0.02481,-0.0083 -0.04548,-0.02067 -0.06201,-0.03721 -0.01653,-0.04961 -0.03721,-0.09095 -0.06201,-0.124023 l -0.07441,-0.09922 c -0.01654,-0.04134 -0.02066,-0.08268 -0.01241,-0.124024 0.0083,-0.04961 0.02066,-0.103352 0.03721,-0.16123 l 0.02479,-0.148828 c 0.0083,-0.04961 0.01241,-0.09922 0.01241,-0.148828 0.03306,-0.04961 0.05788,-0.11989 0.07441,-0.21084 -0.0083,-0.02481 -0.0041,-0.05788 0.01241,-0.09922 0.01654,-0.04961 0.03307,-0.09509 0.04961,-0.136426 0.04134,-0.09922 0.07441,-0.202571 0.09922,-0.310058 0.03307,-0.04134 0.05374,-0.07855 0.06201,-0.111621 0.01654,-0.03307 0.05374,-0.07855 0.11162,-0.136426 l 0.04961,-0.186035 c 0.04134,-0.115756 0.08682,-0.256315 0.136427,-0.42168 0.05787,-0.165365 0.148836,-0.318327 0.272849,-0.458887 0.04134,-0.173633 0.09509,-0.326595 0.161231,-0.458886 0.06615,-0.14056 0.148829,-0.285254 0.248047,-0.434082 0.05788,-0.206706 0.119899,-0.392741 0.186034,-0.558106 0.06615,-0.173633 0.136427,-0.343131 0.210841,-0.508496 0.07441,-0.165365 0.144696,-0.330729 0.210841,-0.496094 0.06614,-0.165364 0.140568,-0.355534 0.22324,-0.570508 0.148828,-0.01654 0.314203,-0.03307 0.496094,-0.04961 0.181901,-0.02481 0.372073,-0.04961 0.57051,-0.07441 0.272841,-0.04134 0.553972,-0.07855 0.84336,-0.111621 0.289377,-0.03307 0.558104,-0.04961 0.806151,-0.04961 h 0.173632 c 0.04961,0 0.119891,0.0041 0.210842,0.0124 0.0496,-0.01654 0.09508,-0.02894 0.136424,-0.03721 0.04134,-0.01654 0.07855,-0.03307 0.111622,-0.04961 0.05787,-0.02481 0.107487,-0.04134 0.148829,-0.04961 0.04133,-0.01654 0.103351,-0.02481 0.186033,-0.02481 h 0.136425 l 0.124026,-0.16123 c 0.0496,-0.03307 0.09096,-0.06615 0.124021,-0.09922 l 0.06201,-0.124024 c 0.03307,-0.289388 -0.01241,-0.508496 -0.136425,-0.657324 -0.115755,-0.148828 -0.235646,-0.272851 -0.359669,-0.37207 -0.06615,-0.04961 -0.124023,-0.09922 -0.173633,-0.148828 -0.04961,-0.04961 -0.09095,-0.103353 -0.124023,-0.161231 l -0.14882,-0.111619 c -0.115756,-0.01654 -0.235646,-0.02894 -0.35967,-0.03721 -0.124013,-0.0083 -0.256315,-0.0124 -0.396875,-0.0124 z m 27.396779,0 c -0.03307,0 -0.06202,0.0041 -0.08682,0.0124 -0.02479,0.0083 -0.04548,0.01654 -0.06201,0.02481 -0.04961,0.01654 -0.107487,0.04961 -0.173632,0.09922 -0.124024,0.496094 -0.264584,0.963249 -0.42168,1.401465 -0.148828,0.438216 -0.305925,0.884701 -0.471289,1.339453 -0.09095,0.248047 -0.186037,0.508496 -0.285255,0.781348 -0.09094,0.264583 -0.186034,0.541569 -0.285253,0.830957 -0.0083,0.01654 -0.01654,0.03721 -0.02479,0.06201 -0.0083,0.01654 -0.02066,0.03721 -0.03721,0.06201 -0.04133,0.09095 -0.08269,0.19017 -0.12402,0.297657 -0.04134,0.107487 -0.04548,0.206705 -0.01241,0.297656 -0.08268,0.09922 -0.144704,0.227376 -0.186034,0.384473 -0.04134,0.148828 -0.08269,0.30179 -0.124026,0.458886 -0.01654,0.09095 -0.03721,0.177767 -0.06201,0.260449 -0.04134,0.173633 -0.07028,0.359668 -0.08682,0.558106 -0.01654,0.198437 -0.01241,0.396875 0.01241,0.595312 0.02479,0.19017 0.07029,0.376205 0.136425,0.558106 0.06615,0.181901 0.157099,0.343131 0.272854,0.483691 0.01654,0.07441 0.03721,0.136426 0.06201,0.186035 0.02479,0.04134 0.05374,0.07855 0.08682,0.111621 0.01654,0.03307 0.03307,0.06201 0.04961,0.08682 0.01654,0.02481 0.04135,0.07441 0.07441,0.148828 0.297656,0.248047 0.690398,0.37207 1.178224,0.37207 0.330729,0 0.657326,-0.04547 0.979786,-0.136425 0.330719,-0.09095 0.636662,-0.181901 0.917771,-0.272852 0.04134,-0.01654 0.08268,-0.02894 0.124026,-0.03721 0.04133,-0.0083 0.11162,-0.02067 0.210839,-0.03721 0.124023,0 0.248047,-0.0041 0.37207,-0.0124 l 0.37207,-0.04961 c 0.115756,-0.01654 0.231511,-0.02894 0.347266,-0.03721 0.124024,-0.0083 0.243922,-0.0124 0.359667,-0.0124 0.297656,0 0.57051,0.04548 0.818557,0.136426 0.173622,-0.04961 0.34313,-0.07441 0.508495,-0.07441 0.08268,0 0.169508,-0.0041 0.260448,-0.0124 0.05788,-0.05788 0.111622,-0.103353 0.161232,-0.136426 0.0496,-0.04134 0.15295,-0.07855 0.310046,-0.111622 l -0.02482,-0.16123 c 0.03307,-0.04961 0.04961,-0.107487 0.04961,-0.173633 0.0083,-0.03307 -0.02066,-0.09509 -0.08682,-0.186035 l -0.111623,-0.63252 c -0.09921,-0.07441 -0.20257,-0.132292 -0.310057,-0.173633 -0.09922,-0.04961 -0.202581,-0.09508 -0.310057,-0.136426 -0.124024,-0.04134 -0.23979,-0.08268 -0.347266,-0.124023 -0.107487,-0.04961 -0.219109,-0.132292 -0.334865,-0.248047 -0.04134,-0.0083 -0.07441,-0.0124 -0.09922,-0.0124 h -0.0744 -0.124023 c -0.02479,-0.0083 -0.07856,-0.04134 -0.161229,-0.09922 -0.248047,0.02481 -0.516766,0.03721 -0.806154,0.03721 -0.347266,0.0083 -0.698667,0.02894 -1.054201,0.06201 -0.347255,0.03307 -0.669734,0.124024 -0.96738,0.272852 -0.09922,-0.03307 -0.202573,-0.04961 -0.31006,-0.04961 -0.08268,0 -0.173632,0.0124 -0.272851,0.03721 0.01654,-0.363802 0.07441,-0.686263 0.173633,-0.967382 0.09922,-0.289388 0.206705,-0.578777 0.322461,-0.868165 l 0.198437,-0.471289 c 0.06615,-0.165364 0.115755,-0.376204 0.148828,-0.632519 0.04961,-0.04134 0.08683,-0.08682 0.11162,-0.136426 0.02479,-0.05788 0.04548,-0.111621 0.06201,-0.16123 0.01654,-0.04134 0.02895,-0.08268 0.03721,-0.124024 0.01654,-0.04134 0.04962,-0.09095 0.09922,-0.148828 0.04134,-0.214974 0.09096,-0.396875 0.148829,-0.545703 0.05788,-0.148828 0.11989,-0.297656 0.186036,-0.446484 0.05788,-0.132292 0.115755,-0.268718 0.173633,-0.409278 0.05788,-0.148828 0.111622,-0.318327 0.161232,-0.508496 0.03306,-0.01654 0.07442,-0.06201 0.12402,-0.136426 0.03307,-0.214974 0.0083,-0.388606 -0.07441,-0.520898 -0.07441,-0.140561 -0.165367,-0.272853 -0.272854,-0.396876 L 92.912451,22.5946 c -0.165364,0 -0.367945,-0.03721 -0.607713,-0.111621 -0.231511,-0.08268 -0.434084,-0.169498 -0.607716,-0.260449 z m -3.232362,0.0052 c -0.127124,-0.0036 -0.252706,-10e-4 -0.376719,0.0072 -0.496094,0.02481 -0.979787,0.09922 -1.451076,0.223242 -0.471289,0.124024 -0.934309,0.264583 -1.389062,0.42168 -0.446484,0.157099 -0.892969,0.276988 -1.339453,0.35967 -0.01654,0.04134 -0.0083,0.06201 0.0248,0.06201 0.03307,0 0.04961,0.01654 0.04961,0.04961 -0.173633,0.04961 -0.359677,0.111622 -0.558104,0.186036 -0.198438,0.06615 -0.38861,0.152962 -0.570511,0.260449 -0.18189,0.09922 -0.351398,0.223242 -0.508494,0.37207 -0.148829,0.148828 -0.260451,0.330729 -0.334865,0.545703 0.01654,0.132292 0.01241,0.235645 -0.01241,0.310059 -0.01654,0.07441 -0.04134,0.177767 -0.07441,0.310058 0.06615,0.09095 0.09508,0.177767 0.08682,0.26045 -0.0083,0.07441 -0.02479,0.173632 -0.04961,0.297656 0.04961,0.09095 0.103354,0.173633 0.161231,0.248047 0.06615,0.06615 0.128167,0.14056 0.186034,0.223242 0.09095,-0.01654 0.148831,-0.0041 0.173636,0.03721 0.02479,0.03307 0.04547,0.07441 0.06201,0.124023 0.289388,0.124024 0.587044,0.21084 0.892969,0.26045 0.314193,0.04961 0.644922,0.08268 0.992187,0.09922 0.14056,0.03307 0.260459,0.06615 0.359667,0.09922 0.09922,0.03307 0.198448,0.01654 0.297656,-0.04961 0.165365,0.09095 0.367938,0.173633 0.607716,0.248047 0.239779,0.07441 0.467165,0.165364 0.682128,0.272851 0.01654,0 0.03308,0.0041 0.04961,0.0124 l 0.07442,0.02481 c 0,0.03307 0.0083,0.05788 0.02479,0.07441 l 0.04961,0.04961 c 0.01654,0.0083 0.02894,0.02067 0.03721,0.03721 0.0083,0.01654 0.0083,0.04134 0,0.07441 -0.02479,0.09095 -0.06202,0.169499 -0.11162,0.235645 -0.04961,0.05788 -0.103354,0.115755 -0.161231,0.173633 -0.05788,0.04961 -0.115756,0.103353 -0.173633,0.16123 -0.04961,0.05788 -0.08683,0.128158 -0.11162,0.21084 -0.23151,0.115755 -0.471292,0.243913 -0.719339,0.384473 -0.239768,0.132291 -0.496101,0.256315 -0.768942,0.37207 -0.264584,0.115755 -0.549839,0.206706 -0.855763,0.272852 -0.297656,0.06614 -0.615985,0.08268 -0.954982,0.04961 -0.115745,0.06615 -0.186034,0.148828 -0.210839,0.248047 -0.02479,0.09095 -0.03307,0.190169 -0.02479,0.297656 l 0.02479,0.322461 c 0.01654,0.09922 0.0041,0.186035 -0.03721,0.260449 -0.0083,0.02481 -0.0041,0.04547 0.01241,0.06201 0.02479,0.01654 0.04548,0.03307 0.06201,0.04961 0.02479,0.0083 0.03721,0.02067 0.03721,0.03721 0.0083,0.0083 -0.0042,0.02481 -0.03721,0.04961 l -0.02482,0.04961 c -0.0083,0.01654 -0.01241,0.04134 -0.01241,0.07441 0.04134,0 0.05788,0.02481 0.04961,0.07441 0,0.04134 0.02069,0.06615 0.06201,0.07441 0.03307,0.09095 0.07442,0.169499 0.124026,0.235645 0.05787,0.06615 0.119888,0.132291 0.186034,0.198437 0.107487,-0.01654 0.214974,-0.02067 0.322461,-0.0124 0.115755,0.0083 0.227377,0.0124 0.334864,0.0124 0.115745,0.0083 0.219107,0.0041 0.310058,-0.0124 0.09922,-0.01654 0.186044,-0.05788 0.260448,-0.124023 -0.02479,0.05788 -0.01654,0.08268 0.02482,0.07441 0.0496,-0.0083 0.09096,-0.0083 0.12402,0 0.363802,-0.107487 0.73174,-0.239779 1.10381,-0.396875 0.372071,-0.165365 0.723472,-0.355534 1.054201,-0.570508 0.338987,-0.223242 0.640786,-0.479557 0.90537,-0.768945 0.264583,-0.289388 0.467164,-0.615983 0.607713,-0.979785 0.08268,-0.19017 0.115755,-0.384473 0.09922,-0.58291 -0.0083,-0.198438 -0.02066,-0.42168 -0.03721,-0.669727 -0.06615,-0.157096 -0.16124,-0.30179 -0.285252,-0.434082 -0.115756,-0.14056 -0.190172,-0.272852 -0.223245,-0.396875 -0.0496,-0.05788 -0.09508,-0.07855 -0.136425,-0.06201 -0.03307,0.01654 -0.06615,-0.01654 -0.09922,-0.09922 0.0083,-0.09095 -0.0042,-0.190169 -0.03721,-0.297656 -0.03307,-0.115755 -0.08682,-0.223242 -0.161232,-0.322461 -0.07441,-0.09922 -0.165365,-0.181901 -0.272852,-0.248047 -0.107487,-0.07441 -0.235645,-0.115755 -0.384474,-0.124023 -0.02479,-0.09922 -0.07855,-0.169499 -0.161229,-0.21084 -0.08268,-0.04961 -0.177768,-0.08682 -0.285255,-0.111621 l -0.297656,-0.07441 c -0.09921,-0.03307 -0.177766,-0.08682 -0.235643,-0.16123 0.01654,-0.04961 0.01241,-0.08268 -0.01241,-0.09922 -0.02479,-0.01654 -0.03307,-0.04548 -0.02479,-0.08682 0.165354,-0.01654 0.322469,-0.03721 0.471287,-0.06201 0.148828,-0.03307 0.268718,-0.09095 0.359669,-0.173633 0.115755,0.01654 0.239779,0.0083 0.37207,-0.02481 0.132292,-0.04134 0.264584,-0.07855 0.396875,-0.111621 0.14056,-0.04134 0.272852,-0.06201 0.396875,-0.06201 0.124024,-0.0083 0.231511,0.03721 0.322461,0.136426 0.297656,-0.03307 0.632521,-0.06201 1.004591,-0.08682 0.37206,-0.02481 0.744149,0.0083 1.116209,0.09922 0.107487,-0.05788 0.210841,-0.119889 0.310059,-0.186035 0.09922,-0.06615 0.194313,-0.132291 0.285253,-0.198437 0.04134,-0.173633 0.02894,-0.310059 -0.03721,-0.409278 -0.05788,-0.107486 -0.136435,-0.206705 -0.235643,-0.297656 -0.0083,-0.09095 -0.03721,-0.177767 -0.08682,-0.260449 -0.04961,-0.08268 -0.107487,-0.165365 -0.173632,-0.248047 L 89.78705,22.706213 c -0.05788,-0.09095 -0.103355,-0.186036 -0.136427,-0.285254 -0.409269,-0.117822 -0.804601,-0.182418 -1.185974,-0.19327 z m -10.062951,0.01964 c -0.256315,0.223242 -0.545703,0.429947 -0.868164,0.620117 -0.314193,0.190169 -0.628385,0.376204 -0.942578,0.558105 -0.314193,0.181901 -0.615992,0.372071 -0.90537,0.570508 -0.289388,0.198437 -0.537445,0.417546 -0.74414,0.657324 -0.09095,0.01654 -0.165368,0.04961 -0.223245,0.09922 -0.05787,0.04134 -0.11162,0.09095 -0.161229,0.148828 -0.04134,0.05788 -0.08682,0.119891 -0.136427,0.186037 -0.04133,0.05788 -0.09923,0.115755 -0.173631,0.173632 -0.454752,0.355534 -0.847494,0.768946 -1.178223,1.240235 -0.322461,0.463021 -0.611849,0.967383 -0.868165,1.513086 0.01654,0.115755 0.01241,0.210839 -0.01241,0.285254 -0.02479,0.07441 -0.03721,0.157096 -0.03721,0.248046 0.01654,0.01654 0.03721,0.03307 0.06201,0.04961 0.02479,0.0083 0.03307,0.03307 0.02479,0.07441 0.04134,0.868164 0.272862,1.550293 0.694532,2.046387 0.421679,0.496093 1.004591,0.760677 1.748731,0.79375 0.107487,0.0083 0.223242,-0.0041 0.347266,-0.03721 0.124023,-0.03307 0.243914,-0.04961 0.359669,-0.04961 h 0.334862 c 0.132292,0 0.28112,-0.0124 0.446485,-0.03721 0.02479,-0.01654 0.04134,-0.03721 0.04961,-0.06201 0.01654,-0.0248 0.04548,-0.03307 0.08682,-0.0248 0.107487,-0.0083 0.206716,-0.02067 0.297656,-0.03721 l 0.272854,-0.04961 c 0.09094,-0.01654 0.186034,-0.02894 0.285253,-0.03721 0.09922,-0.0083 0.219109,-0.0124 0.359669,-0.0124 0.322451,-0.124023 0.649055,-0.23151 0.979784,-0.322461 0.338998,-0.09922 0.673862,-0.190169 1.004591,-0.272851 0.330719,-0.09095 0.653198,-0.181901 0.96738,-0.272852 0.314193,-0.09922 0.607717,-0.219108 0.880568,-0.359668 0.28112,-0.14056 0.53331,-0.305924 0.756542,-0.496094 0.223242,-0.198437 0.413414,-0.438216 0.57051,-0.719335 0.01654,-0.115756 0.0083,-0.214974 -0.02482,-0.297657 -0.03306,-0.08268 -0.04134,-0.190169 -0.02479,-0.322461 -0.14056,-0.06614 -0.260451,-0.148828 -0.359669,-0.248046 l -0.297657,-0.297657 c -0.09922,-0.107487 -0.202573,-0.206705 -0.31006,-0.297656 -0.107476,-0.09922 -0.235643,-0.181901 -0.384471,-0.248047 -0.157096,-0.09095 -0.326596,-0.181901 -0.508497,-0.272851 -0.181891,-0.09922 -0.359667,-0.194304 -0.5333,-0.285254 -0.173633,-0.09095 -0.338997,-0.181901 -0.496094,-0.272852 -0.157096,-0.09095 -0.289388,-0.177767 -0.396875,-0.260449 l -1.029393,0.682129 c -0.01654,0.08268 -0.04134,0.152962 -0.07442,0.21084 -0.03306,0.05788 -0.05374,0.132291 -0.06201,0.223242 0.03307,0.01654 0.05375,0.01654 0.06201,0 0.01654,-0.01654 0.02482,-0.03307 0.02482,-0.04961 l 0.02479,-0.04961 c 0.0083,-0.01654 0.03308,-0.01654 0.07442,0 0.05787,0.04134 0.08682,0.09509 0.08682,0.161231 0,0.06614 -0.02895,0.124023 -0.08682,0.173632 0.01654,0.198438 0.06615,0.359668 0.148828,0.483692 0.09094,0.124023 0.20257,0.223242 0.334862,0.297656 -0.03307,0.04134 -0.07856,0.08268 -0.136425,0.124023 -0.04961,0.03307 -0.04961,0.07441 0,0.124024 0.115745,0.03307 0.248047,0.07855 0.396875,0.136426 -0.504362,0.132291 -1.000466,0.264583 -1.488281,0.396875 -0.487825,0.124023 -1.012859,0.214974 -1.575099,0.272851 -0.04134,0.01654 -0.06615,0.04547 -0.07441,0.08682 -0.0083,0.04134 -0.02894,0.07441 -0.06201,0.09922 -0.272841,-0.05788 -0.545711,-0.07441 -0.818552,-0.04961 -0.272852,0.01654 -0.566375,0.01654 -0.880568,0 -0.01654,-0.04134 -0.04134,-0.07855 -0.07441,-0.111621 -0.02479,-0.03307 -0.04548,-0.07028 -0.06201,-0.111621 0.157096,-0.272852 0.347268,-0.549837 0.570511,-0.830957 0.223231,-0.289388 0.463028,-0.566374 0.719333,-0.830957 0.256315,-0.272852 0.520909,-0.529167 0.79375,-0.768946 0.28112,-0.239778 0.558107,-0.458886 0.830958,-0.657324 0.272852,-0.198437 0.545703,-0.37207 0.818555,-0.520898 0.28112,-0.157097 0.553971,-0.301791 0.818555,-0.434082 0.272851,-0.132292 0.529166,-0.256315 0.768945,-0.372071 0.248047,-0.124023 0.471289,-0.252181 0.669726,-0.384472 -0.01654,-0.06615 -0.01654,-0.111621 0,-0.136426 0.02479,-0.03307 0.03721,-0.07441 0.03721,-0.124023 -3e-6,-0.05788 -0.02894,-0.08682 -0.08682,-0.08682 -0.05788,0 -0.08682,-0.02894 -0.08682,-0.08682 0.07441,0 0.111623,-0.02067 0.111623,-0.06201 0,-0.04134 -0.0083,-0.08682 -0.02479,-0.136426 -0.01654,-0.04961 -0.02894,-0.09508 -0.03721,-0.136425 0,-0.04134 0.02894,-0.06201 0.08682,-0.06201 -0.05788,-0.148828 -0.144704,-0.264584 -0.260448,-0.347266 -0.107487,-0.09095 -0.227378,-0.165364 -0.35967,-0.223242 -0.124023,-0.06615 -0.248046,-0.128158 -0.37207,-0.186035 -0.115755,-0.06615 -0.210841,-0.177767 -0.285255,-0.334863 -0.05787,-0.01654 -0.115763,-0.0124 -0.17363,0.0124 -0.04961,0.01654 -0.119891,-0.0041 -0.210841,-0.06201 z m -10.26914,0.03721 -0.148828,0.210839 c -0.214974,0.33073 -0.429948,0.615983 -0.644922,0.855762 -0.206706,0.231511 -0.446485,0.409277 -0.719336,0.533301 l -0.223242,-0.03721 c -0.05788,0 -0.107487,0.0083 -0.148828,0.02481 -0.03307,0.0083 -0.06615,0.02067 -0.09922,0.03721 l -0.136425,-0.0124 -0.08682,0.124023 c -0.132292,0.157097 -0.243914,0.318327 -0.334865,0.483692 -0.08267,0.165364 -0.161229,0.330729 -0.235643,0.496093 -0.06615,0.14056 -0.136427,0.276986 -0.210841,0.409278 -0.06614,0.132291 -0.157105,0.28112 -0.272849,0.446484 -0.01654,0.04961 -0.02482,0.09508 -0.02482,0.136426 0,0.03307 0.0041,0.06615 0.01241,0.09922 -0.07441,0.165364 -0.152972,0.326595 -0.235643,0.483691 l -0.223245,0.471289 c -0.239768,0.487826 -0.471289,0.963249 -0.694532,1.42627 -0.214963,0.463021 -0.425812,0.946712 -0.632518,1.451074 l -0.01241,0.260449 -0.161229,0.124024 0.186037,0.186035 c 0.03306,0.04134 0.05788,0.115755 0.07441,0.223242 0.01654,0.05788 0.02894,0.115755 0.03721,0.173633 0.0083,0.04961 0.02895,0.107487 0.06201,0.173632 l 0.07442,0.09922 c 0.08267,0.04134 0.15296,0.09095 0.210838,0.148828 0.06615,0.04961 0.148828,0.124024 0.248047,0.223243 l 0.161229,0.0124 c 0.05788,0 0.107498,-0.0041 0.148828,-0.0124 0.04961,-0.0083 0.128159,-0.0248 0.235646,-0.04961 l 0.186037,-0.02481 0.03721,-0.16123 c 0.03307,-0.03307 0.09095,-0.06615 0.173633,-0.09922 0.05788,-0.0248 0.115755,-0.05374 0.173633,-0.08682 0.06615,-0.03307 0.11989,-0.08268 0.161232,-0.148828 l 0.04961,-0.161231 c 0,-0.124023 0.01654,-0.248047 0.04961,-0.37207 0.04134,-0.124025 0.0827,-0.252182 0.124032,-0.384474 0.03307,-0.08268 0.06201,-0.165365 0.08682,-0.248047 0.03307,-0.08268 0.05788,-0.169499 0.07442,-0.260449 0.01654,-0.01654 0.03721,-0.03307 0.06201,-0.04961 0.02479,-0.01654 0.04547,-0.03721 0.06201,-0.06201 l 0.124023,-0.111621 -0.04961,-0.136426 c -0.0083,-0.01654 -0.0083,-0.04134 0,-0.07441 0.01654,-0.03307 0.03307,-0.05788 0.04961,-0.07441 l 0.161232,-0.02481 0.04961,-0.16123 0.04961,-0.173633 c 0.02479,-0.06615 0.05374,-0.132292 0.08682,-0.198438 0.0083,0.09922 0.04134,0.194304 0.09922,0.285254 -0.03307,0.124024 -0.02066,0.227377 0.03721,0.310059 0.05788,0.08268 0.107498,0.148828 0.148829,0.198437 0.01654,0.01654 0.03308,0.03721 0.04961,0.06201 0.02479,0.01654 0.03721,0.03307 0.03721,0.04961 l 0.03721,0.136426 0.136424,0.0124 c 0.157097,0.02481 0.305925,0.03721 0.446485,0.03721 0.214973,0 0.413411,-0.01654 0.595312,-0.04961 0.181901,-0.04134 0.367938,-0.08682 0.558107,-0.136426 0.132281,-0.03307 0.264583,-0.06201 0.396875,-0.08682 0.132281,-0.03307 0.301789,-0.02894 0.508495,0.0124 0.01654,0.264583 -0.01654,0.450618 -0.09922,0.558105 -0.08268,0.09922 -0.248047,0.181901 -0.496094,0.248047 l -0.409276,0.111621 0.248047,0.285254 c 0.03306,0.03307 0.06201,0.06615 0.08681,0.09922 0.02479,0.02481 0.05375,0.04961 0.08682,0.07441 0.09095,0.08268 0.148831,0.148828 0.173636,0.198437 0.03306,0.04961 0.03721,0.107487 0.01241,0.173633 l -0.04962,0.186038 0.161229,0.07441 c 0.04134,0.01654 0.09509,0.04961 0.161232,0.09922 0.04134,0.03307 0.08683,0.06615 0.136425,0.09922 0.05788,0.03307 0.144695,0.06201 0.26045,0.08682 0.206706,-0.0083 0.405143,-0.05374 0.595313,-0.136426 0.190169,-0.09095 0.359669,-0.202571 0.508497,-0.334863 0.157086,-0.14056 0.289388,-0.293522 0.396875,-0.458887 0.115745,-0.173633 0.214974,-0.367936 0.297656,-0.58291 0.02479,-0.190169 0.02479,-0.37207 0,-0.545703 -0.01654,-0.181901 -0.04134,-0.355534 -0.07442,-0.520899 -0.01654,-0.06614 -0.02894,-0.124023 -0.03721,-0.173632 0,-0.04961 -0.0083,-0.103353 -0.02479,-0.161231 0.231511,-0.107487 0.438217,-0.243913 0.620118,-0.409277 0.190169,-0.165365 0.330729,-0.334863 0.421679,-0.508496 l 0.12401,-0.235645 -0.223242,-0.08682 c -0.01654,-0.0083 -0.03722,-0.02067 -0.06201,-0.03721 l -0.06201,-0.06201 c -0.04134,-0.04134 -0.09509,-0.08268 -0.161232,-0.124023 -0.05787,-0.04961 -0.152961,-0.07855 -0.285253,-0.08682 -0.03307,-0.0248 -0.06202,-0.04961 -0.08681,-0.07441 -0.02479,-0.0248 -0.04548,-0.04961 -0.06201,-0.07441 l -0.04961,-0.148828 -0.161232,0.0124 c -0.132281,0.0083 -0.248047,0.03307 -0.347265,0.07441 -0.01654,-0.0083 -0.06615,-0.0124 -0.148829,-0.0124 -0.08267,-0.198437 -0.148828,-0.405143 -0.198437,-0.620117 -0.0496,-0.223242 -0.09508,-0.454753 -0.136425,-0.694531 -0.03307,-0.165365 -0.07028,-0.33073 -0.111622,-0.496094 -0.03306,-0.173633 -0.07028,-0.343132 -0.11162,-0.508496 -0.0083,-0.206706 -0.02479,-0.392741 -0.04961,-0.558106 -0.02479,-0.173632 -0.05374,-0.347265 -0.08682,-0.520898 l -0.04961,-0.223242 c -0.0083,-0.07441 -0.02066,-0.157097 -0.03721,-0.248047 l -0.06201,-0.111621 c -0.09094,-0.09095 -0.219107,-0.161231 -0.384471,-0.21084 -0.165365,-0.05788 -0.334865,-0.107487 -0.508498,-0.148828 -0.09921,-0.03307 -0.194302,-0.06201 -0.285252,-0.08682 -0.09095,-0.0248 -0.157097,-0.04961 -0.198438,-0.07441 z m -23.688477,2.468066 c 0.19017,0.06615 0.372071,0.194303 0.545704,0.384473 0.173632,0.181901 0.281119,0.425813 0.322461,0.731738 -0.338998,0.14056 -0.698666,0.289388 -1.079004,0.446484 -0.380339,0.148828 -0.744141,0.243913 -1.091407,0.285254 0.04134,-0.223242 0.111622,-0.413411 0.21084,-0.570508 0.09922,-0.165364 0.21084,-0.314192 0.334864,-0.446484 0.132291,-0.14056 0.264583,-0.272852 0.396875,-0.396875 0.132291,-0.132292 0.252181,-0.276986 0.359667,-0.434082 z m -8.09873,0.632521 c 0.206706,0.314193 0.388607,0.649056 0.545703,1.00459 0.157097,0.347265 0.343132,0.669726 0.558106,0.967382 0,0.09922 0.0041,0.173633 0.0124,0.223243 0.01654,0.04961 0.04548,0.111621 0.08682,0.186035 -0.0083,0.14056 -0.04548,0.248047 -0.111621,0.322461 -0.06615,0.07441 -0.119889,0.16123 -0.16123,0.260449 -0.322461,0.165365 -0.63252,0.330729 -0.930176,0.496094 -0.297656,0.157096 -0.620117,0.252181 -0.967383,0.285254 -0.06615,0 -0.09922,0.03721 -0.09922,0.111621 -0.190169,0 -0.405143,0.02067 -0.644922,0.06201 -0.239778,0.04134 -0.479557,0.07441 -0.719336,0.09922 -0.239778,0.01654 -0.475423,0.0124 -0.706933,-0.0124 -0.223242,-0.03307 -0.417546,-0.119889 -0.58291,-0.260449 0.0083,-0.239779 0.04961,-0.446484 0.124023,-0.620117 0.08268,-0.181901 0.177767,-0.3514 0.285254,-0.508496 0.107487,-0.157097 0.214974,-0.310059 0.322461,-0.458887 0.115755,-0.157096 0.214974,-0.330729 0.297656,-0.520899 0.04961,-0.01654 0.07855,-0.02067 0.08682,-0.0124 0.0083,0.0083 0.03307,0 0.07441,-0.0248 0.23151,-0.289388 0.487825,-0.541569 0.768945,-0.756543 0.289388,-0.214974 0.578776,-0.438216 0.868164,-0.669727 0.04961,0.04134 0.103353,0.07441 0.161231,0.09922 0.06615,0.02481 0.128157,0.03721 0.186035,0.03721 0.06615,0 0.124023,-0.0124 0.173632,-0.03721 0.04961,-0.03307 0.08682,-0.09095 0.111622,-0.173633 0.05788,0.05788 0.111621,0.06615 0.16123,0.0248 0.04961,-0.04134 0.08268,-0.08268 0.09922,-0.124024 z m 66.650198,0 c 0.2067,0.314193 0.38861,0.649056 0.5457,1.00459 0.15709,0.347265 0.34313,0.669726 0.55811,0.967382 0,0.09922 0.004,0.173633 0.0124,0.223243 0.0165,0.04961 0.0455,0.111621 0.0868,0.186035 -0.008,0.14056 -0.0455,0.248047 -0.11162,0.322461 -0.0661,0.07441 -0.11989,0.16123 -0.16123,0.260449 -0.32246,0.165365 -0.63252,0.330729 -0.93018,0.496094 -0.29765,0.157096 -0.62012,0.252181 -0.96738,0.285254 -0.0662,0 -0.0992,0.03721 -0.0992,0.111621 -0.19017,0 -0.40515,0.02067 -0.64492,0.06201 -0.23978,0.04134 -0.47956,0.07441 -0.71934,0.09922 -0.23977,0.01654 -0.47542,0.0124 -0.706931,-0.0124 -0.223242,-0.03307 -0.417547,-0.119889 -0.582912,-0.260449 0.0083,-0.239779 0.04961,-0.446484 0.124027,-0.620117 0.08267,-0.181901 0.177765,-0.3514 0.285252,-0.508496 0.107487,-0.157097 0.214974,-0.310059 0.322464,-0.458887 0.11575,-0.157096 0.21497,-0.330729 0.29765,-0.520899 0.0496,-0.01654 0.0786,-0.02067 0.0868,-0.0124 0.008,0.0083 0.0331,0 0.0744,-0.0248 0.23151,-0.289388 0.48783,-0.541569 0.76895,-0.756543 0.28938,-0.214974 0.57878,-0.438216 0.86816,-0.669727 0.0496,0.04134 0.10336,0.07441 0.16123,0.09922 0.0662,0.02481 0.12817,0.03721 0.18604,0.03721 0.0661,0 0.12402,-0.0124 0.17363,-0.03721 0.0496,-0.03307 0.0868,-0.09095 0.11162,-0.173633 0.0579,0.05788 0.11163,0.06615 0.16123,0.0248 0.0496,-0.04134 0.0827,-0.08268 0.0992,-0.124024 z m 19.47168,0 c 0.20669,0.314193 0.3886,0.649056 0.5457,1.00459 0.15709,0.347265 0.34313,0.669726 0.5581,0.967382 0,0.09922 0.004,0.173633 0.0124,0.223243 0.0165,0.04961 0.0455,0.111621 0.0868,0.186035 -0.008,0.14056 -0.0455,0.248047 -0.11162,0.322461 -0.0661,0.07441 -0.11989,0.16123 -0.16123,0.260449 -0.32246,0.165365 -0.63253,0.330729 -0.93017,0.496094 -0.29766,0.157096 -0.62012,0.252181 -0.96739,0.285254 -0.0661,0 -0.0992,0.03721 -0.0992,0.111621 -0.19016,0 -0.40514,0.02067 -0.64492,0.06201 -0.23977,0.04134 -0.47957,0.07441 -0.71933,0.09922 -0.23978,0.01654 -0.47543,0.0124 -0.70694,-0.0124 -0.22324,-0.03307 -0.41755,-0.119889 -0.58291,-0.260449 0.008,-0.239779 0.0496,-0.446484 0.12402,-0.620117 0.0827,-0.181901 0.17777,-0.3514 0.28526,-0.508496 0.10749,-0.157097 0.21497,-0.310059 0.32246,-0.458887 0.11575,-0.157096 0.21497,-0.330729 0.29766,-0.520899 0.0496,-0.01654 0.0785,-0.02067 0.0868,-0.0124 0.008,0.0083 0.0331,0 0.0744,-0.0248 0.2315,-0.289388 0.48783,-0.541569 0.76894,-0.756543 0.28939,-0.214974 0.57878,-0.438216 0.86817,-0.669727 0.0496,0.04134 0.10335,0.07441 0.16123,0.09922 0.0661,0.02481 0.12815,0.03721 0.18603,0.03721 0.0661,0 0.12403,-0.0124 0.17363,-0.03721 0.0496,-0.03307 0.0868,-0.09095 0.11162,-0.173633 0.0579,0.05788 0.11163,0.06615 0.16124,0.0248 0.0496,-0.04134 0.0827,-0.08268 0.0992,-0.124024 z m -54.471096,0.111621 c 0.09094,0.322461 0.173633,0.644922 0.248047,0.967383 0.08267,0.314192 0.157104,0.624251 0.22324,0.930175 -0.289378,0.05788 -0.558104,0.09922 -0.806151,0.124024 -0.248047,0.02481 -0.516774,0.04547 -0.806151,0.06201 -0.05788,0.0083 -0.115758,0.0124 -0.173636,0.0124 -0.0496,0 -0.103351,0.0041 -0.161229,0.0124 0.107487,-0.181901 0.219109,-0.355534 0.334865,-0.520899 l 0.01241,-0.0124 c 0.124023,-0.23151 0.281119,-0.475423 0.471289,-0.731738 0.190169,-0.256315 0.388606,-0.496094 0.595312,-0.719336 z"
       id="text4487"
       inkscape:connector-curvature="0" />
    <flowRoot
       xml:space="preserve"
       id="flowRoot4495"
       style="font-style:normal;font-variant:normal;font-weight:normal;font-stretch:normal;font-size:48px;line-height:1.25;font-family:'Permanent Marker';-inkscape-font-specification:'Permanent Marker';letter-spacing:0px;word-spacing:0px;fill:#000000;fill-opacity:1;stroke:none"><flowRegion
         id="flowRegion4497"><rect
           id="rect4499"
           width="383.57144"
           height="221.42857"
           x="1027.1428"
           y="322.63715" /></flowRegion><flowPara
         id="flowPara4501" /></flowRoot>  </g>
</svg>
